<svg xmlns="http://www.w3.org/2000/svg" xmlns:xlink="http://www.w3.org/1999/xlink" width="5337" zoomAndPan="magnify" viewBox="0 0 4002.75 2668.49992" height="3558" preserveAspectRatio="xMidYMid meet" version="1.0"><defs><g/><clipPath id="f19d712003"><path d="M 2825.980469 1273.433594 L 3566.136719 1273.433594 L 3566.136719 2401.292969 L 2825.980469 2401.292969 Z M 2825.980469 1273.433594 " clip-rule="nonzero"/></clipPath><linearGradient x1="176" gradientTransform="matrix(1, 0, 0, -1, -0.0000200841, 535.890049)" y1="534.890017" x2="176" gradientUnits="userSpaceOnUse" y2="1.390049" id="412f81e60c"><stop stop-opacity="1" stop-color="rgb(64.625549%, 99.949646%, 85.127258%)" offset="0"/><stop stop-opacity="1" stop-color="rgb(64.471436%, 99.845886%, 85.185242%)" offset="0.0078125"/><stop stop-opacity="1" stop-color="rgb(64.163208%, 99.636841%, 85.301208%)" offset="0.015625"/><stop stop-opacity="1" stop-color="rgb(63.85498%, 99.429321%, 85.417175%)" offset="0.0234375"/><stop stop-opacity="1" stop-color="rgb(63.546753%, 99.221802%, 85.533142%)" offset="0.03125"/><stop stop-opacity="1" stop-color="rgb(63.238525%, 99.014282%, 85.649109%)" offset="0.0390625"/><stop stop-opacity="1" stop-color="rgb(62.930298%, 98.806763%, 85.765076%)" offset="0.046875"/><stop stop-opacity="1" stop-color="rgb(62.62207%, 98.597717%, 85.881042%)" offset="0.0546875"/><stop stop-opacity="1" stop-color="rgb(62.313843%, 98.390198%, 85.997009%)" offset="0.0625"/><stop stop-opacity="1" stop-color="rgb(62.005615%, 98.182678%, 86.112976%)" offset="0.0703125"/><stop stop-opacity="1" stop-color="rgb(61.697388%, 97.975159%, 86.228943%)" offset="0.078125"/><stop stop-opacity="1" stop-color="rgb(61.38916%, 97.767639%, 86.34491%)" offset="0.0859375"/><stop stop-opacity="1" stop-color="rgb(61.080933%, 97.56012%, 86.460876%)" offset="0.09375"/><stop stop-opacity="1" stop-color="rgb(60.772705%, 97.351074%, 86.576843%)" offset="0.101562"/><stop stop-opacity="1" stop-color="rgb(60.464478%, 97.143555%, 86.69281%)" offset="0.109375"/><stop stop-opacity="1" stop-color="rgb(60.15625%, 96.936035%, 86.808777%)" offset="0.117187"/><stop stop-opacity="1" stop-color="rgb(59.848022%, 96.728516%, 86.924744%)" offset="0.125"/><stop stop-opacity="1" stop-color="rgb(59.539795%, 96.520996%, 87.04071%)" offset="0.132812"/><stop stop-opacity="1" stop-color="rgb(59.231567%, 96.311951%, 87.156677%)" offset="0.140625"/><stop stop-opacity="1" stop-color="rgb(58.92334%, 96.104431%, 87.272644%)" offset="0.148437"/><stop stop-opacity="1" stop-color="rgb(58.615112%, 95.896912%, 87.388611%)" offset="0.15625"/><stop stop-opacity="1" stop-color="rgb(58.306885%, 95.689392%, 87.504578%)" offset="0.164062"/><stop stop-opacity="1" stop-color="rgb(57.998657%, 95.481873%, 87.620544%)" offset="0.171875"/><stop stop-opacity="1" stop-color="rgb(57.69043%, 95.272827%, 87.736511%)" offset="0.179687"/><stop stop-opacity="1" stop-color="rgb(57.382202%, 95.065308%, 87.852478%)" offset="0.1875"/><stop stop-opacity="1" stop-color="rgb(57.073975%, 94.857788%, 87.968445%)" offset="0.195312"/><stop stop-opacity="1" stop-color="rgb(56.765747%, 94.650269%, 88.084412%)" offset="0.203125"/><stop stop-opacity="1" stop-color="rgb(56.45752%, 94.442749%, 88.200378%)" offset="0.210937"/><stop stop-opacity="1" stop-color="rgb(56.149292%, 94.233704%, 88.316345%)" offset="0.21875"/><stop stop-opacity="1" stop-color="rgb(55.841064%, 94.026184%, 88.432312%)" offset="0.226562"/><stop stop-opacity="1" stop-color="rgb(55.532837%, 93.818665%, 88.548279%)" offset="0.234375"/><stop stop-opacity="1" stop-color="rgb(55.224609%, 93.611145%, 88.664246%)" offset="0.242187"/><stop stop-opacity="1" stop-color="rgb(54.916382%, 93.403625%, 88.780212%)" offset="0.25"/><stop stop-opacity="1" stop-color="rgb(54.608154%, 93.19458%, 88.896179%)" offset="0.257812"/><stop stop-opacity="1" stop-color="rgb(54.299927%, 92.987061%, 89.012146%)" offset="0.265625"/><stop stop-opacity="1" stop-color="rgb(53.991699%, 92.779541%, 89.128113%)" offset="0.273437"/><stop stop-opacity="1" stop-color="rgb(53.683472%, 92.572021%, 89.24408%)" offset="0.28125"/><stop stop-opacity="1" stop-color="rgb(53.375244%, 92.364502%, 89.360046%)" offset="0.289062"/><stop stop-opacity="1" stop-color="rgb(53.067017%, 92.155457%, 89.476013%)" offset="0.296875"/><stop stop-opacity="1" stop-color="rgb(52.758789%, 91.947937%, 89.59198%)" offset="0.304687"/><stop stop-opacity="1" stop-color="rgb(52.450562%, 91.740417%, 89.707947%)" offset="0.3125"/><stop stop-opacity="1" stop-color="rgb(52.142334%, 91.532898%, 89.823914%)" offset="0.320312"/><stop stop-opacity="1" stop-color="rgb(51.834106%, 91.325378%, 89.93988%)" offset="0.328125"/><stop stop-opacity="1" stop-color="rgb(51.525879%, 91.117859%, 90.055847%)" offset="0.335937"/><stop stop-opacity="1" stop-color="rgb(51.217651%, 90.908813%, 90.171814%)" offset="0.34375"/><stop stop-opacity="1" stop-color="rgb(50.909424%, 90.701294%, 90.287781%)" offset="0.351562"/><stop stop-opacity="1" stop-color="rgb(50.601196%, 90.493774%, 90.403748%)" offset="0.359375"/><stop stop-opacity="1" stop-color="rgb(50.292969%, 90.286255%, 90.519714%)" offset="0.367187"/><stop stop-opacity="1" stop-color="rgb(49.984741%, 90.078735%, 90.635681%)" offset="0.375"/><stop stop-opacity="1" stop-color="rgb(49.676514%, 89.86969%, 90.751648%)" offset="0.382812"/><stop stop-opacity="1" stop-color="rgb(49.368286%, 89.66217%, 90.867615%)" offset="0.390625"/><stop stop-opacity="1" stop-color="rgb(49.060059%, 89.454651%, 90.983582%)" offset="0.398438"/><stop stop-opacity="1" stop-color="rgb(48.751831%, 89.247131%, 91.099548%)" offset="0.40625"/><stop stop-opacity="1" stop-color="rgb(48.443604%, 89.039612%, 91.215515%)" offset="0.414062"/><stop stop-opacity="1" stop-color="rgb(48.135376%, 88.830566%, 91.331482%)" offset="0.421875"/><stop stop-opacity="1" stop-color="rgb(47.827148%, 88.623047%, 91.447449%)" offset="0.429688"/><stop stop-opacity="1" stop-color="rgb(47.518921%, 88.415527%, 91.563416%)" offset="0.4375"/><stop stop-opacity="1" stop-color="rgb(47.210693%, 88.208008%, 91.679382%)" offset="0.445312"/><stop stop-opacity="1" stop-color="rgb(46.902466%, 88.000488%, 91.795349%)" offset="0.453125"/><stop stop-opacity="1" stop-color="rgb(46.594238%, 87.791443%, 91.911316%)" offset="0.460938"/><stop stop-opacity="1" stop-color="rgb(46.286011%, 87.583923%, 92.027283%)" offset="0.46875"/><stop stop-opacity="1" stop-color="rgb(45.977783%, 87.376404%, 92.14325%)" offset="0.476562"/><stop stop-opacity="1" stop-color="rgb(45.669556%, 87.168884%, 92.259216%)" offset="0.484375"/><stop stop-opacity="1" stop-color="rgb(45.361328%, 86.961365%, 92.375183%)" offset="0.492187"/><stop stop-opacity="1" stop-color="rgb(45.053101%, 86.752319%, 92.49115%)" offset="0.5"/><stop stop-opacity="1" stop-color="rgb(44.744873%, 86.5448%, 92.607117%)" offset="0.507812"/><stop stop-opacity="1" stop-color="rgb(44.436646%, 86.33728%, 92.723083%)" offset="0.515625"/><stop stop-opacity="1" stop-color="rgb(44.128418%, 86.129761%, 92.83905%)" offset="0.523438"/><stop stop-opacity="1" stop-color="rgb(43.82019%, 85.922241%, 92.955017%)" offset="0.53125"/><stop stop-opacity="1" stop-color="rgb(43.511963%, 85.713196%, 93.070984%)" offset="0.539062"/><stop stop-opacity="1" stop-color="rgb(43.203735%, 85.505676%, 93.186951%)" offset="0.546875"/><stop stop-opacity="1" stop-color="rgb(42.895508%, 85.298157%, 93.302917%)" offset="0.554687"/><stop stop-opacity="1" stop-color="rgb(42.58728%, 85.090637%, 93.418884%)" offset="0.5625"/><stop stop-opacity="1" stop-color="rgb(42.279053%, 84.883118%, 93.534851%)" offset="0.570312"/><stop stop-opacity="1" stop-color="rgb(41.970825%, 84.675598%, 93.650818%)" offset="0.578125"/><stop stop-opacity="1" stop-color="rgb(41.662598%, 84.466553%, 93.766785%)" offset="0.585937"/><stop stop-opacity="1" stop-color="rgb(41.35437%, 84.259033%, 93.882751%)" offset="0.59375"/><stop stop-opacity="1" stop-color="rgb(41.046143%, 84.051514%, 93.998718%)" offset="0.601562"/><stop stop-opacity="1" stop-color="rgb(40.737915%, 83.843994%, 94.114685%)" offset="0.609375"/><stop stop-opacity="1" stop-color="rgb(40.429688%, 83.636475%, 94.230652%)" offset="0.617188"/><stop stop-opacity="1" stop-color="rgb(40.12146%, 83.427429%, 94.346619%)" offset="0.625"/><stop stop-opacity="1" stop-color="rgb(39.813232%, 83.21991%, 94.462585%)" offset="0.632812"/><stop stop-opacity="1" stop-color="rgb(39.505005%, 83.01239%, 94.578552%)" offset="0.640625"/><stop stop-opacity="1" stop-color="rgb(39.196777%, 82.804871%, 94.694519%)" offset="0.648438"/><stop stop-opacity="1" stop-color="rgb(38.88855%, 82.597351%, 94.810486%)" offset="0.65625"/><stop stop-opacity="1" stop-color="rgb(38.580322%, 82.388306%, 94.926453%)" offset="0.664062"/><stop stop-opacity="1" stop-color="rgb(38.272095%, 82.180786%, 95.042419%)" offset="0.671875"/><stop stop-opacity="1" stop-color="rgb(37.963867%, 81.973267%, 95.158386%)" offset="0.679687"/><stop stop-opacity="1" stop-color="rgb(37.65564%, 81.765747%, 95.274353%)" offset="0.6875"/><stop stop-opacity="1" stop-color="rgb(37.347412%, 81.558228%, 95.39032%)" offset="0.695312"/><stop stop-opacity="1" stop-color="rgb(37.039185%, 81.349182%, 95.506287%)" offset="0.703125"/><stop stop-opacity="1" stop-color="rgb(36.730957%, 81.141663%, 95.622253%)" offset="0.710938"/><stop stop-opacity="1" stop-color="rgb(36.422729%, 80.934143%, 95.73822%)" offset="0.71875"/><stop stop-opacity="1" stop-color="rgb(36.114502%, 80.726624%, 95.854187%)" offset="0.726562"/><stop stop-opacity="1" stop-color="rgb(35.806274%, 80.519104%, 95.970154%)" offset="0.734375"/><stop stop-opacity="1" stop-color="rgb(35.498047%, 80.310059%, 96.086121%)" offset="0.742188"/><stop stop-opacity="1" stop-color="rgb(35.189819%, 80.102539%, 96.202087%)" offset="0.75"/><stop stop-opacity="1" stop-color="rgb(34.881592%, 79.89502%, 96.318054%)" offset="0.757812"/><stop stop-opacity="1" stop-color="rgb(34.573364%, 79.6875%, 96.434021%)" offset="0.765625"/><stop stop-opacity="1" stop-color="rgb(34.265137%, 79.47998%, 96.549988%)" offset="0.773438"/><stop stop-opacity="1" stop-color="rgb(33.956909%, 79.270935%, 96.665955%)" offset="0.78125"/><stop stop-opacity="1" stop-color="rgb(33.648682%, 79.063416%, 96.781921%)" offset="0.789062"/><stop stop-opacity="1" stop-color="rgb(33.340454%, 78.855896%, 96.897888%)" offset="0.796875"/><stop stop-opacity="1" stop-color="rgb(33.032227%, 78.648376%, 97.013855%)" offset="0.804687"/><stop stop-opacity="1" stop-color="rgb(32.723999%, 78.440857%, 97.129822%)" offset="0.8125"/><stop stop-opacity="1" stop-color="rgb(32.415771%, 78.233337%, 97.245789%)" offset="0.820312"/><stop stop-opacity="1" stop-color="rgb(32.107544%, 78.024292%, 97.361755%)" offset="0.828125"/><stop stop-opacity="1" stop-color="rgb(31.799316%, 77.816772%, 97.477722%)" offset="0.835938"/><stop stop-opacity="1" stop-color="rgb(31.491089%, 77.609253%, 97.593689%)" offset="0.84375"/><stop stop-opacity="1" stop-color="rgb(31.182861%, 77.401733%, 97.709656%)" offset="0.851562"/><stop stop-opacity="1" stop-color="rgb(30.874634%, 77.194214%, 97.825623%)" offset="0.859375"/><stop stop-opacity="1" stop-color="rgb(30.566406%, 76.985168%, 97.941589%)" offset="0.867188"/><stop stop-opacity="1" stop-color="rgb(30.258179%, 76.777649%, 98.057556%)" offset="0.875"/><stop stop-opacity="1" stop-color="rgb(29.949951%, 76.570129%, 98.173523%)" offset="0.882812"/><stop stop-opacity="1" stop-color="rgb(29.641724%, 76.36261%, 98.28949%)" offset="0.890625"/><stop stop-opacity="1" stop-color="rgb(29.333496%, 76.15509%, 98.405457%)" offset="0.898438"/><stop stop-opacity="1" stop-color="rgb(29.025269%, 75.946045%, 98.521423%)" offset="0.90625"/><stop stop-opacity="1" stop-color="rgb(28.717041%, 75.738525%, 98.63739%)" offset="0.914062"/><stop stop-opacity="1" stop-color="rgb(28.408813%, 75.531006%, 98.753357%)" offset="0.921875"/><stop stop-opacity="1" stop-color="rgb(28.100586%, 75.323486%, 98.869324%)" offset="0.929687"/><stop stop-opacity="1" stop-color="rgb(27.792358%, 75.115967%, 98.985291%)" offset="0.9375"/><stop stop-opacity="1" stop-color="rgb(27.484131%, 74.906921%, 99.101257%)" offset="0.945313"/><stop stop-opacity="1" stop-color="rgb(27.175903%, 74.699402%, 99.217224%)" offset="0.953125"/><stop stop-opacity="1" stop-color="rgb(26.867676%, 74.491882%, 99.333191%)" offset="0.960938"/><stop stop-opacity="1" stop-color="rgb(26.559448%, 74.284363%, 99.449158%)" offset="0.96875"/><stop stop-opacity="1" stop-color="rgb(26.251221%, 74.076843%, 99.565125%)" offset="0.976562"/><stop stop-opacity="1" stop-color="rgb(25.942993%, 73.867798%, 99.681091%)" offset="0.984375"/><stop stop-opacity="1" stop-color="rgb(25.634766%, 73.660278%, 99.797058%)" offset="0.992188"/><stop stop-opacity="1" stop-color="rgb(25.326538%, 73.452759%, 99.913025%)" offset="1"/></linearGradient><clipPath id="2632790938"><path d="M 0.25 357.953125 L 976.628906 357.953125 L 976.628906 1334.332031 L 0.25 1334.332031 Z M 0.25 357.953125 " clip-rule="nonzero"/></clipPath><linearGradient x1="216.5" gradientTransform="matrix(1, 0, -0, 1, -0.00000337316, -0.00000110941)" y1="431.000004" x2="216.5" gradientUnits="userSpaceOnUse" y2="863.999977" id="846e510f7e"><stop stop-opacity="1" stop-color="rgb(25.099182%, 73.298645%, 100%)" offset="0"/><stop stop-opacity="1" stop-color="rgb(25.094604%, 73.194885%, 100%)" offset="0.015625"/><stop stop-opacity="1" stop-color="rgb(25.083923%, 72.944641%, 100%)" offset="0.03125"/><stop stop-opacity="1" stop-color="rgb(25.071716%, 72.651672%, 100%)" offset="0.046875"/><stop stop-opacity="1" stop-color="rgb(25.059509%, 72.357178%, 100%)" offset="0.0625"/><stop stop-opacity="1" stop-color="rgb(25.045776%, 72.064209%, 100%)" offset="0.078125"/><stop stop-opacity="1" stop-color="rgb(25.033569%, 71.769714%, 100%)" offset="0.09375"/><stop stop-opacity="1" stop-color="rgb(25.021362%, 71.476746%, 100%)" offset="0.109375"/><stop stop-opacity="1" stop-color="rgb(25.009155%, 71.182251%, 100%)" offset="0.125"/><stop stop-opacity="1" stop-color="rgb(24.996948%, 70.889282%, 100%)" offset="0.140625"/><stop stop-opacity="1" stop-color="rgb(24.984741%, 70.594788%, 100%)" offset="0.15625"/><stop stop-opacity="1" stop-color="rgb(24.971008%, 70.301819%, 100%)" offset="0.171875"/><stop stop-opacity="1" stop-color="rgb(24.958801%, 70.007324%, 100%)" offset="0.1875"/><stop stop-opacity="1" stop-color="rgb(24.946594%, 69.714355%, 100%)" offset="0.203125"/><stop stop-opacity="1" stop-color="rgb(24.934387%, 69.419861%, 100%)" offset="0.21875"/><stop stop-opacity="1" stop-color="rgb(24.92218%, 69.126892%, 100%)" offset="0.234375"/><stop stop-opacity="1" stop-color="rgb(24.908447%, 68.832397%, 100%)" offset="0.25"/><stop stop-opacity="1" stop-color="rgb(24.89624%, 68.539429%, 100%)" offset="0.265625"/><stop stop-opacity="1" stop-color="rgb(24.884033%, 68.244934%, 100%)" offset="0.28125"/><stop stop-opacity="1" stop-color="rgb(24.871826%, 67.951965%, 100%)" offset="0.296875"/><stop stop-opacity="1" stop-color="rgb(24.859619%, 67.657471%, 100%)" offset="0.3125"/><stop stop-opacity="1" stop-color="rgb(24.845886%, 67.364502%, 100%)" offset="0.328125"/><stop stop-opacity="1" stop-color="rgb(24.833679%, 67.070007%, 100%)" offset="0.34375"/><stop stop-opacity="1" stop-color="rgb(24.821472%, 66.777039%, 100%)" offset="0.359375"/><stop stop-opacity="1" stop-color="rgb(24.809265%, 66.482544%, 100%)" offset="0.375"/><stop stop-opacity="1" stop-color="rgb(24.797058%, 66.188049%, 100%)" offset="0.390625"/><stop stop-opacity="1" stop-color="rgb(24.783325%, 65.895081%, 100%)" offset="0.40625"/><stop stop-opacity="1" stop-color="rgb(24.771118%, 65.600586%, 100%)" offset="0.421875"/><stop stop-opacity="1" stop-color="rgb(24.758911%, 65.307617%, 100%)" offset="0.4375"/><stop stop-opacity="1" stop-color="rgb(24.746704%, 65.013123%, 100%)" offset="0.453125"/><stop stop-opacity="1" stop-color="rgb(24.734497%, 64.720154%, 100%)" offset="0.46875"/><stop stop-opacity="1" stop-color="rgb(24.72229%, 64.425659%, 100%)" offset="0.484375"/><stop stop-opacity="1" stop-color="rgb(24.708557%, 64.13269%, 100%)" offset="0.5"/><stop stop-opacity="1" stop-color="rgb(24.69635%, 63.838196%, 100%)" offset="0.515625"/><stop stop-opacity="1" stop-color="rgb(24.684143%, 63.545227%, 100%)" offset="0.53125"/><stop stop-opacity="1" stop-color="rgb(24.671936%, 63.250732%, 100%)" offset="0.546875"/><stop stop-opacity="1" stop-color="rgb(24.659729%, 62.957764%, 100%)" offset="0.5625"/><stop stop-opacity="1" stop-color="rgb(24.645996%, 62.663269%, 100%)" offset="0.578125"/><stop stop-opacity="1" stop-color="rgb(24.633789%, 62.3703%, 100%)" offset="0.59375"/><stop stop-opacity="1" stop-color="rgb(24.621582%, 62.075806%, 100%)" offset="0.609375"/><stop stop-opacity="1" stop-color="rgb(24.609375%, 61.782837%, 100%)" offset="0.625"/><stop stop-opacity="1" stop-color="rgb(24.597168%, 61.488342%, 100%)" offset="0.640625"/><stop stop-opacity="1" stop-color="rgb(24.583435%, 61.195374%, 100%)" offset="0.65625"/><stop stop-opacity="1" stop-color="rgb(24.571228%, 60.900879%, 100%)" offset="0.671875"/><stop stop-opacity="1" stop-color="rgb(24.559021%, 60.60791%, 100%)" offset="0.6875"/><stop stop-opacity="1" stop-color="rgb(24.546814%, 60.313416%, 100%)" offset="0.703125"/><stop stop-opacity="1" stop-color="rgb(24.534607%, 60.020447%, 100%)" offset="0.71875"/><stop stop-opacity="1" stop-color="rgb(24.520874%, 59.725952%, 100%)" offset="0.734375"/><stop stop-opacity="1" stop-color="rgb(24.508667%, 59.432983%, 100%)" offset="0.75"/><stop stop-opacity="1" stop-color="rgb(24.49646%, 59.138489%, 100%)" offset="0.765625"/><stop stop-opacity="1" stop-color="rgb(24.484253%, 58.84552%, 100%)" offset="0.78125"/><stop stop-opacity="1" stop-color="rgb(24.472046%, 58.551025%, 100%)" offset="0.796875"/><stop stop-opacity="1" stop-color="rgb(24.458313%, 58.258057%, 100%)" offset="0.8125"/><stop stop-opacity="1" stop-color="rgb(24.446106%, 57.963562%, 100%)" offset="0.828125"/><stop stop-opacity="1" stop-color="rgb(24.433899%, 57.670593%, 100%)" offset="0.84375"/><stop stop-opacity="1" stop-color="rgb(24.421692%, 57.376099%, 100%)" offset="0.859375"/><stop stop-opacity="1" stop-color="rgb(24.409485%, 57.08313%, 100%)" offset="0.875"/><stop stop-opacity="1" stop-color="rgb(24.397278%, 56.788635%, 100%)" offset="0.890625"/><stop stop-opacity="1" stop-color="rgb(24.383545%, 56.495667%, 100%)" offset="0.90625"/><stop stop-opacity="1" stop-color="rgb(24.371338%, 56.201172%, 100%)" offset="0.921875"/><stop stop-opacity="1" stop-color="rgb(24.359131%, 55.908203%, 100%)" offset="0.9375"/><stop stop-opacity="1" stop-color="rgb(24.346924%, 55.613708%, 100%)" offset="0.953125"/><stop stop-opacity="1" stop-color="rgb(24.334717%, 55.32074%, 100%)" offset="0.96875"/><stop stop-opacity="1" stop-color="rgb(24.320984%, 55.026245%, 100%)" offset="0.984375"/><stop stop-opacity="1" stop-color="rgb(24.308777%, 54.733276%, 100%)" offset="1"/></linearGradient><clipPath id="c68d66b287"><path d="M 2879 351 L 4002.25 351 L 4002.25 1725 L 2879 1725 Z M 2879 351 " clip-rule="nonzero"/></clipPath><clipPath id="7401e7b911"><path d="M 2877.15625 349.109375 L 4002.25 349.109375 L 4002.25 1726.6875 L 2877.15625 1726.6875 Z M 2877.15625 349.109375 " clip-rule="nonzero"/></clipPath><linearGradient x1="335" gradientTransform="matrix(1, 0, 0, 1, -0.0000447886, -0.0000232685)" y1="0.0000232685" x2="335" gradientUnits="userSpaceOnUse" y2="670.000057" id="33f9dcc324"><stop stop-opacity="1" stop-color="rgb(64.698792%, 99.998474%, 85.099792%)" offset="0"/><stop stop-opacity="1" stop-color="rgb(64.544678%, 99.894714%, 85.157776%)" offset="0.0078125"/><stop stop-opacity="1" stop-color="rgb(64.234924%, 99.685669%, 85.273743%)" offset="0.015625"/><stop stop-opacity="1" stop-color="rgb(63.925171%, 99.476624%, 85.389709%)" offset="0.0234375"/><stop stop-opacity="1" stop-color="rgb(63.615417%, 99.269104%, 85.507202%)" offset="0.03125"/><stop stop-opacity="1" stop-color="rgb(63.30719%, 99.060059%, 85.623169%)" offset="0.0390625"/><stop stop-opacity="1" stop-color="rgb(62.997437%, 98.851013%, 85.739136%)" offset="0.046875"/><stop stop-opacity="1" stop-color="rgb(62.687683%, 98.643494%, 85.855103%)" offset="0.0546875"/><stop stop-opacity="1" stop-color="rgb(62.37793%, 98.434448%, 85.972595%)" offset="0.0625"/><stop stop-opacity="1" stop-color="rgb(62.069702%, 98.225403%, 86.088562%)" offset="0.0703125"/><stop stop-opacity="1" stop-color="rgb(61.759949%, 98.016357%, 86.204529%)" offset="0.078125"/><stop stop-opacity="1" stop-color="rgb(61.450195%, 97.808838%, 86.322021%)" offset="0.0859375"/><stop stop-opacity="1" stop-color="rgb(61.140442%, 97.599792%, 86.437988%)" offset="0.09375"/><stop stop-opacity="1" stop-color="rgb(60.832214%, 97.390747%, 86.553955%)" offset="0.101562"/><stop stop-opacity="1" stop-color="rgb(60.522461%, 97.183228%, 86.669922%)" offset="0.109375"/><stop stop-opacity="1" stop-color="rgb(60.212708%, 96.974182%, 86.787415%)" offset="0.117187"/><stop stop-opacity="1" stop-color="rgb(59.902954%, 96.765137%, 86.903381%)" offset="0.125"/><stop stop-opacity="1" stop-color="rgb(59.594727%, 96.557617%, 87.019348%)" offset="0.132812"/><stop stop-opacity="1" stop-color="rgb(59.284973%, 96.348572%, 87.136841%)" offset="0.140625"/><stop stop-opacity="1" stop-color="rgb(58.97522%, 96.139526%, 87.252808%)" offset="0.148437"/><stop stop-opacity="1" stop-color="rgb(58.665466%, 95.930481%, 87.368774%)" offset="0.15625"/><stop stop-opacity="1" stop-color="rgb(58.355713%, 95.722961%, 87.484741%)" offset="0.164062"/><stop stop-opacity="1" stop-color="rgb(58.047485%, 95.513916%, 87.602234%)" offset="0.171875"/><stop stop-opacity="1" stop-color="rgb(57.737732%, 95.304871%, 87.718201%)" offset="0.179687"/><stop stop-opacity="1" stop-color="rgb(57.427979%, 95.097351%, 87.834167%)" offset="0.1875"/><stop stop-opacity="1" stop-color="rgb(57.118225%, 94.888306%, 87.95166%)" offset="0.195312"/><stop stop-opacity="1" stop-color="rgb(56.809998%, 94.67926%, 88.067627%)" offset="0.203125"/><stop stop-opacity="1" stop-color="rgb(56.500244%, 94.470215%, 88.183594%)" offset="0.210937"/><stop stop-opacity="1" stop-color="rgb(56.190491%, 94.262695%, 88.299561%)" offset="0.21875"/><stop stop-opacity="1" stop-color="rgb(55.880737%, 94.05365%, 88.417053%)" offset="0.226562"/><stop stop-opacity="1" stop-color="rgb(55.57251%, 93.844604%, 88.53302%)" offset="0.234375"/><stop stop-opacity="1" stop-color="rgb(55.262756%, 93.637085%, 88.648987%)" offset="0.242187"/><stop stop-opacity="1" stop-color="rgb(54.953003%, 93.42804%, 88.766479%)" offset="0.25"/><stop stop-opacity="1" stop-color="rgb(54.64325%, 93.218994%, 88.882446%)" offset="0.257812"/><stop stop-opacity="1" stop-color="rgb(54.335022%, 93.011475%, 88.998413%)" offset="0.265625"/><stop stop-opacity="1" stop-color="rgb(54.025269%, 92.802429%, 89.11438%)" offset="0.273437"/><stop stop-opacity="1" stop-color="rgb(53.715515%, 92.593384%, 89.231873%)" offset="0.28125"/><stop stop-opacity="1" stop-color="rgb(53.405762%, 92.384338%, 89.347839%)" offset="0.289062"/><stop stop-opacity="1" stop-color="rgb(53.097534%, 92.176819%, 89.463806%)" offset="0.296875"/><stop stop-opacity="1" stop-color="rgb(52.787781%, 91.967773%, 89.581299%)" offset="0.304687"/><stop stop-opacity="1" stop-color="rgb(52.478027%, 91.758728%, 89.697266%)" offset="0.3125"/><stop stop-opacity="1" stop-color="rgb(52.168274%, 91.551208%, 89.813232%)" offset="0.320312"/><stop stop-opacity="1" stop-color="rgb(51.860046%, 91.342163%, 89.929199%)" offset="0.328125"/><stop stop-opacity="1" stop-color="rgb(51.550293%, 91.133118%, 90.046692%)" offset="0.335937"/><stop stop-opacity="1" stop-color="rgb(51.24054%, 90.925598%, 90.162659%)" offset="0.34375"/><stop stop-opacity="1" stop-color="rgb(50.930786%, 90.716553%, 90.278625%)" offset="0.351562"/><stop stop-opacity="1" stop-color="rgb(50.622559%, 90.507507%, 90.396118%)" offset="0.359375"/><stop stop-opacity="1" stop-color="rgb(50.312805%, 90.298462%, 90.512085%)" offset="0.367187"/><stop stop-opacity="1" stop-color="rgb(50.003052%, 90.090942%, 90.628052%)" offset="0.375"/><stop stop-opacity="1" stop-color="rgb(49.693298%, 89.881897%, 90.744019%)" offset="0.382812"/><stop stop-opacity="1" stop-color="rgb(49.385071%, 89.672852%, 90.861511%)" offset="0.390625"/><stop stop-opacity="1" stop-color="rgb(49.075317%, 89.465332%, 90.977478%)" offset="0.398437"/><stop stop-opacity="1" stop-color="rgb(48.765564%, 89.256287%, 91.093445%)" offset="0.40625"/><stop stop-opacity="1" stop-color="rgb(48.455811%, 89.047241%, 91.210938%)" offset="0.414062"/><stop stop-opacity="1" stop-color="rgb(48.147583%, 88.838196%, 91.326904%)" offset="0.421875"/><stop stop-opacity="1" stop-color="rgb(47.83783%, 88.630676%, 91.442871%)" offset="0.429687"/><stop stop-opacity="1" stop-color="rgb(47.528076%, 88.421631%, 91.558838%)" offset="0.4375"/><stop stop-opacity="1" stop-color="rgb(47.218323%, 88.212585%, 91.676331%)" offset="0.445312"/><stop stop-opacity="1" stop-color="rgb(46.910095%, 88.005066%, 91.792297%)" offset="0.453125"/><stop stop-opacity="1" stop-color="rgb(46.600342%, 87.796021%, 91.908264%)" offset="0.460937"/><stop stop-opacity="1" stop-color="rgb(46.290588%, 87.586975%, 92.025757%)" offset="0.46875"/><stop stop-opacity="1" stop-color="rgb(45.980835%, 87.379456%, 92.141724%)" offset="0.476562"/><stop stop-opacity="1" stop-color="rgb(45.672607%, 87.17041%, 92.25769%)" offset="0.484375"/><stop stop-opacity="1" stop-color="rgb(45.362854%, 86.961365%, 92.373657%)" offset="0.492187"/><stop stop-opacity="1" stop-color="rgb(45.053101%, 86.752319%, 92.49115%)" offset="0.5"/><stop stop-opacity="1" stop-color="rgb(44.743347%, 86.5448%, 92.607117%)" offset="0.507812"/><stop stop-opacity="1" stop-color="rgb(44.43512%, 86.335754%, 92.723083%)" offset="0.515625"/><stop stop-opacity="1" stop-color="rgb(44.125366%, 86.126709%, 92.840576%)" offset="0.523437"/><stop stop-opacity="1" stop-color="rgb(43.815613%, 85.919189%, 92.956543%)" offset="0.53125"/><stop stop-opacity="1" stop-color="rgb(43.505859%, 85.710144%, 93.07251%)" offset="0.539062"/><stop stop-opacity="1" stop-color="rgb(43.197632%, 85.501099%, 93.190002%)" offset="0.546875"/><stop stop-opacity="1" stop-color="rgb(42.887878%, 85.293579%, 93.305969%)" offset="0.554688"/><stop stop-opacity="1" stop-color="rgb(42.578125%, 85.084534%, 93.421936%)" offset="0.5625"/><stop stop-opacity="1" stop-color="rgb(42.268372%, 84.875488%, 93.537903%)" offset="0.570312"/><stop stop-opacity="1" stop-color="rgb(41.960144%, 84.666443%, 93.655396%)" offset="0.578125"/><stop stop-opacity="1" stop-color="rgb(41.650391%, 84.458923%, 93.771362%)" offset="0.585937"/><stop stop-opacity="1" stop-color="rgb(41.340637%, 84.249878%, 93.887329%)" offset="0.59375"/><stop stop-opacity="1" stop-color="rgb(41.030884%, 84.040833%, 94.004822%)" offset="0.601562"/><stop stop-opacity="1" stop-color="rgb(40.722656%, 83.833313%, 94.120789%)" offset="0.609375"/><stop stop-opacity="1" stop-color="rgb(40.412903%, 83.624268%, 94.236755%)" offset="0.617187"/><stop stop-opacity="1" stop-color="rgb(40.103149%, 83.415222%, 94.352722%)" offset="0.625"/><stop stop-opacity="1" stop-color="rgb(39.793396%, 83.206177%, 94.470215%)" offset="0.632812"/><stop stop-opacity="1" stop-color="rgb(39.485168%, 82.998657%, 94.586182%)" offset="0.640625"/><stop stop-opacity="1" stop-color="rgb(39.175415%, 82.789612%, 94.702148%)" offset="0.648437"/><stop stop-opacity="1" stop-color="rgb(38.865662%, 82.580566%, 94.819641%)" offset="0.65625"/><stop stop-opacity="1" stop-color="rgb(38.555908%, 82.373047%, 94.935608%)" offset="0.664062"/><stop stop-opacity="1" stop-color="rgb(38.247681%, 82.164001%, 95.051575%)" offset="0.671875"/><stop stop-opacity="1" stop-color="rgb(37.937927%, 81.954956%, 95.167542%)" offset="0.679687"/><stop stop-opacity="1" stop-color="rgb(37.628174%, 81.747437%, 95.285034%)" offset="0.6875"/><stop stop-opacity="1" stop-color="rgb(37.31842%, 81.538391%, 95.401001%)" offset="0.695312"/><stop stop-opacity="1" stop-color="rgb(37.010193%, 81.329346%, 95.516968%)" offset="0.703125"/><stop stop-opacity="1" stop-color="rgb(36.700439%, 81.1203%, 95.63446%)" offset="0.710937"/><stop stop-opacity="1" stop-color="rgb(36.390686%, 80.912781%, 95.750427%)" offset="0.71875"/><stop stop-opacity="1" stop-color="rgb(36.080933%, 80.703735%, 95.866394%)" offset="0.726562"/><stop stop-opacity="1" stop-color="rgb(35.772705%, 80.49469%, 95.982361%)" offset="0.734375"/><stop stop-opacity="1" stop-color="rgb(35.462952%, 80.28717%, 96.099854%)" offset="0.742187"/><stop stop-opacity="1" stop-color="rgb(35.153198%, 80.078125%, 96.21582%)" offset="0.75"/><stop stop-opacity="1" stop-color="rgb(34.843445%, 79.86908%, 96.331787%)" offset="0.757812"/><stop stop-opacity="1" stop-color="rgb(34.535217%, 79.66156%, 96.44928%)" offset="0.765625"/><stop stop-opacity="1" stop-color="rgb(34.225464%, 79.452515%, 96.565247%)" offset="0.773437"/><stop stop-opacity="1" stop-color="rgb(33.91571%, 79.243469%, 96.681213%)" offset="0.78125"/><stop stop-opacity="1" stop-color="rgb(33.605957%, 79.034424%, 96.79718%)" offset="0.789062"/><stop stop-opacity="1" stop-color="rgb(33.297729%, 78.826904%, 96.914673%)" offset="0.796875"/><stop stop-opacity="1" stop-color="rgb(32.987976%, 78.617859%, 97.03064%)" offset="0.804688"/><stop stop-opacity="1" stop-color="rgb(32.678223%, 78.408813%, 97.146606%)" offset="0.8125"/><stop stop-opacity="1" stop-color="rgb(32.368469%, 78.201294%, 97.264099%)" offset="0.820312"/><stop stop-opacity="1" stop-color="rgb(32.060242%, 77.992249%, 97.380066%)" offset="0.828125"/><stop stop-opacity="1" stop-color="rgb(31.750488%, 77.783203%, 97.496033%)" offset="0.835937"/><stop stop-opacity="1" stop-color="rgb(31.440735%, 77.574158%, 97.612%)" offset="0.84375"/><stop stop-opacity="1" stop-color="rgb(31.130981%, 77.366638%, 97.729492%)" offset="0.851562"/><stop stop-opacity="1" stop-color="rgb(30.822754%, 77.157593%, 97.845459%)" offset="0.859375"/><stop stop-opacity="1" stop-color="rgb(30.513%, 76.948547%, 97.961426%)" offset="0.867187"/><stop stop-opacity="1" stop-color="rgb(30.203247%, 76.741028%, 98.078918%)" offset="0.875"/><stop stop-opacity="1" stop-color="rgb(29.893494%, 76.531982%, 98.194885%)" offset="0.882812"/><stop stop-opacity="1" stop-color="rgb(29.585266%, 76.322937%, 98.310852%)" offset="0.890625"/><stop stop-opacity="1" stop-color="rgb(29.275513%, 76.115417%, 98.426819%)" offset="0.898437"/><stop stop-opacity="1" stop-color="rgb(28.965759%, 75.906372%, 98.544312%)" offset="0.90625"/><stop stop-opacity="1" stop-color="rgb(28.656006%, 75.697327%, 98.660278%)" offset="0.914062"/><stop stop-opacity="1" stop-color="rgb(28.347778%, 75.488281%, 98.776245%)" offset="0.921875"/><stop stop-opacity="1" stop-color="rgb(28.038025%, 75.280762%, 98.893738%)" offset="0.929687"/><stop stop-opacity="1" stop-color="rgb(27.728271%, 75.071716%, 99.009705%)" offset="0.9375"/><stop stop-opacity="1" stop-color="rgb(27.418518%, 74.862671%, 99.125671%)" offset="0.945312"/><stop stop-opacity="1" stop-color="rgb(27.110291%, 74.655151%, 99.241638%)" offset="0.953125"/><stop stop-opacity="1" stop-color="rgb(26.800537%, 74.446106%, 99.359131%)" offset="0.960937"/><stop stop-opacity="1" stop-color="rgb(26.490784%, 74.237061%, 99.475098%)" offset="0.96875"/><stop stop-opacity="1" stop-color="rgb(26.18103%, 74.028015%, 99.591064%)" offset="0.976562"/><stop stop-opacity="1" stop-color="rgb(25.872803%, 73.820496%, 99.708557%)" offset="0.984375"/><stop stop-opacity="1" stop-color="rgb(25.563049%, 73.61145%, 99.824524%)" offset="0.992187"/><stop stop-opacity="1" stop-color="rgb(25.253296%, 73.402405%, 99.940491%)" offset="1"/></linearGradient><clipPath id="beebb7a8fa"><path d="M 1130.359375 1115 L 1419.074219 1115 L 1419.074219 1471.953125 L 1130.359375 1471.953125 Z M 1130.359375 1115 " clip-rule="nonzero"/></clipPath><clipPath id="d210f6c4a3"><path d="M 2583.667969 1115.195312 L 2872.382812 1115.195312 L 2872.382812 1472.152344 L 2583.667969 1472.152344 Z M 2583.667969 1115.195312 " clip-rule="nonzero"/></clipPath><clipPath id="644097a60e"><path d="M 1423 1066 L 1566 1066 L 1566 1522 L 1423 1522 Z M 1423 1066 " clip-rule="nonzero"/></clipPath><clipPath id="fcdf32ce85"><path d="M 1419.078125 1520.761719 L 1539.363281 1058.460938 L 1569.847656 1066.394531 L 1449.5625 1528.691406 Z M 1419.078125 1520.761719 " clip-rule="nonzero"/></clipPath><clipPath id="6ad6a03a67"><path d="M 1419.078125 1520.761719 L 1539.363281 1058.460938 L 1569.847656 1066.394531 L 1449.5625 1528.691406 Z M 1419.078125 1520.761719 " clip-rule="nonzero"/></clipPath><clipPath id="28684b47b4"><path d="M 1569.605469 1448 L 1711.339844 1448 L 1711.339844 1609.601562 L 1569.605469 1609.601562 Z M 1569.605469 1448 " clip-rule="nonzero"/></clipPath><clipPath id="0e8523dcad"><path d="M 1769.816406 1447.621094 L 1914.550781 1447.621094 L 1914.550781 1609.601562 L 1769.816406 1609.601562 Z M 1769.816406 1447.621094 " clip-rule="nonzero"/></clipPath><clipPath id="4f4c6a83ef"><path d="M 1964 1447.621094 L 2125.699219 1447.621094 L 2125.699219 1609.601562 L 1964 1609.601562 Z M 1964 1447.621094 " clip-rule="nonzero"/></clipPath><clipPath id="a8521906b4"><path d="M 1964 1447.621094 L 2046 1447.621094 L 2046 1609.601562 L 1964 1609.601562 Z M 1964 1447.621094 " clip-rule="nonzero"/></clipPath></defs><g clip-path="url(#f19d712003)"><path stroke-linecap="butt" transform="matrix(2.10272, 0, 0, 2.103099, 2825.98051, 1274.260293)" fill="none" stroke-linejoin="miter" d="M 1.699787 267.999937 L 350.99996 1.999217 L 350.99996 533.499164 Z M 1.699787 267.999937 " stroke="url(#412f81e60c)" stroke-width="2" stroke-miterlimit="4"/></g><path fill="#000000" d="M 2.503906 1332.078125 L 2.503906 360.210938 L 974.371094 360.210938 L 974.371094 1332.078125 Z M 2.503906 1332.078125 " fill-opacity="1" fill-rule="nonzero"/><g clip-path="url(#2632790938)"><path stroke-linecap="butt" transform="matrix(0.000000000000000138, -2.254914, 2.254914, 0.000000000000000138, -971.618026, 1334.332697)" fill="none" stroke-linejoin="miter" d="M 0.999848 431.999562 L 431.999486 431.999562 L 431.999486 862.9992 L 0.999848 862.9992 Z M 0.999848 431.999562 " stroke="url(#846e510f7e)" stroke-width="2" stroke-miterlimit="4"/></g><g clip-path="url(#c68d66b287)"><path fill="#000000" d="M 4252.679688 1037.898438 C 4252.679688 1049.136719 4252.402344 1060.367188 4251.851562 1071.59375 C 4251.300781 1082.820312 4250.472656 1094.023438 4249.371094 1105.207031 C 4248.269531 1116.394531 4246.894531 1127.542969 4245.246094 1138.660156 C 4243.597656 1149.777344 4241.675781 1160.847656 4239.484375 1171.871094 C 4237.292969 1182.894531 4234.828125 1193.855469 4232.097656 1204.757812 C 4229.367188 1215.660156 4226.371094 1226.488281 4223.109375 1237.246094 C 4219.847656 1248 4216.320312 1258.667969 4212.535156 1269.25 C 4208.75 1279.832031 4204.707031 1290.316406 4200.40625 1300.699219 C 4196.101562 1311.082031 4191.550781 1321.351562 4186.746094 1331.511719 C 4181.941406 1341.671875 4176.886719 1351.707031 4171.589844 1361.621094 C 4166.292969 1371.53125 4160.753906 1381.308594 4154.976562 1390.949219 C 4149.199219 1400.589844 4143.1875 1410.082031 4136.945312 1419.425781 C 4130.699219 1428.769531 4124.230469 1437.957031 4117.535156 1446.984375 C 4110.839844 1456.011719 4103.925781 1464.867188 4096.796875 1473.554688 C 4089.667969 1482.242188 4082.328125 1490.75 4074.78125 1499.078125 C 4067.234375 1507.40625 4059.488281 1515.542969 4051.539062 1523.492188 C 4043.59375 1531.4375 4035.457031 1539.183594 4027.128906 1546.734375 C 4018.800781 1554.28125 4010.292969 1561.617188 4001.605469 1568.75 C 3992.917969 1575.878906 3984.058594 1582.789062 3975.03125 1589.484375 C 3966.003906 1596.179688 3956.820312 1602.652344 3947.472656 1608.894531 C 3938.128906 1615.136719 3928.636719 1621.148438 3918.996094 1626.925781 C 3909.359375 1632.707031 3899.582031 1638.242188 3889.667969 1643.542969 C 3879.757812 1648.839844 3869.722656 1653.890625 3859.5625 1658.695312 C 3849.402344 1663.5 3839.132812 1668.054688 3828.746094 1672.355469 C 3818.363281 1676.65625 3807.882812 1680.699219 3797.300781 1684.484375 C 3786.71875 1688.273438 3776.050781 1691.796875 3765.292969 1695.058594 C 3754.539062 1698.320312 3743.710938 1701.320312 3732.808594 1704.050781 C 3721.90625 1706.78125 3710.945312 1709.242188 3699.921875 1711.433594 C 3688.898438 1713.628906 3677.828125 1715.546875 3666.710938 1717.195312 C 3655.59375 1718.847656 3644.441406 1720.222656 3633.257812 1721.324219 C 3622.074219 1722.425781 3610.867188 1723.25 3599.644531 1723.800781 C 3588.417969 1724.355469 3577.183594 1724.628906 3565.945312 1724.628906 C 3554.707031 1724.628906 3543.476562 1724.355469 3532.25 1723.800781 C 3521.023438 1723.25 3509.820312 1722.425781 3498.632812 1721.324219 C 3487.449219 1720.222656 3476.300781 1718.847656 3465.183594 1717.195312 C 3454.0625 1715.546875 3442.996094 1713.628906 3431.972656 1711.433594 C 3420.949219 1709.242188 3409.984375 1706.78125 3399.082031 1704.050781 C 3388.183594 1701.320312 3377.351562 1698.320312 3366.597656 1695.058594 C 3355.84375 1691.796875 3345.175781 1688.273438 3334.59375 1684.484375 C 3324.011719 1680.699219 3313.527344 1676.65625 3303.144531 1672.355469 C 3292.761719 1668.054688 3282.488281 1663.5 3272.332031 1658.695312 C 3262.171875 1653.890625 3252.132812 1648.839844 3242.222656 1643.542969 C 3232.3125 1638.242188 3222.535156 1632.707031 3212.894531 1626.925781 C 3203.253906 1621.148438 3193.761719 1615.136719 3184.417969 1608.894531 C 3175.074219 1602.652344 3165.886719 1596.179688 3156.859375 1589.484375 C 3147.832031 1582.789062 3138.976562 1575.878906 3130.289062 1568.75 C 3121.601562 1561.617188 3113.09375 1554.28125 3104.765625 1546.730469 C 3096.4375 1539.183594 3088.300781 1531.4375 3080.351562 1523.492188 C 3072.40625 1515.542969 3064.660156 1507.40625 3057.109375 1499.078125 C 3049.5625 1490.75 3042.222656 1482.242188 3035.09375 1473.554688 C 3027.964844 1464.867188 3021.050781 1456.011719 3014.355469 1446.984375 C 3007.664062 1437.957031 3001.191406 1428.769531 2994.949219 1419.425781 C 2988.703125 1410.082031 2982.695312 1400.589844 2976.914062 1390.949219 C 2971.136719 1381.308594 2965.601562 1371.53125 2960.300781 1361.621094 C 2955.003906 1351.707031 2949.953125 1341.671875 2945.148438 1331.511719 C 2940.34375 1321.351562 2935.789062 1311.082031 2931.488281 1300.699219 C 2927.1875 1290.316406 2923.144531 1279.832031 2919.355469 1269.25 C 2915.570312 1258.667969 2912.046875 1248 2908.785156 1237.246094 C 2905.523438 1226.488281 2902.523438 1215.660156 2899.792969 1204.757812 C 2897.0625 1193.855469 2894.601562 1182.894531 2892.410156 1171.871094 C 2890.214844 1160.847656 2888.296875 1149.777344 2886.644531 1138.660156 C 2884.996094 1127.542969 2883.621094 1116.394531 2882.519531 1105.207031 C 2881.417969 1094.023438 2880.59375 1082.820312 2880.039062 1071.59375 C 2879.488281 1060.367188 2879.214844 1049.136719 2879.214844 1037.898438 C 2879.214844 1026.65625 2879.488281 1015.425781 2880.039062 1004.199219 C 2880.59375 992.976562 2881.417969 981.769531 2882.519531 970.585938 C 2883.621094 959.402344 2884.996094 948.25 2886.644531 937.132812 C 2888.296875 926.015625 2890.214844 914.945312 2892.410156 903.921875 C 2894.601562 892.898438 2897.0625 881.9375 2899.792969 871.035156 C 2902.523438 860.132812 2905.523438 849.304688 2908.785156 838.550781 C 2912.046875 827.792969 2915.570312 817.125 2919.355469 806.542969 C 2923.144531 795.960938 2927.1875 785.480469 2931.488281 775.097656 C 2935.789062 764.710938 2940.34375 754.441406 2945.148438 744.28125 C 2949.953125 734.121094 2955.003906 724.085938 2960.300781 714.171875 C 2965.601562 704.261719 2971.136719 694.484375 2976.914062 684.847656 C 2982.695312 675.207031 2988.703125 665.714844 2994.949219 656.367188 C 3001.191406 647.023438 3007.664062 637.839844 3014.355469 628.8125 C 3021.050781 619.785156 3027.964844 610.925781 3035.09375 602.238281 C 3042.222656 593.550781 3049.5625 585.042969 3057.109375 576.714844 C 3064.660156 568.386719 3072.40625 560.25 3080.351562 552.304688 C 3088.300781 544.355469 3096.4375 536.609375 3104.765625 529.0625 C 3113.09375 521.515625 3121.601562 514.175781 3130.289062 507.046875 C 3138.976562 499.914062 3147.832031 493.003906 3156.859375 486.308594 C 3165.886719 479.613281 3175.074219 473.144531 3184.417969 466.898438 C 3193.761719 460.65625 3203.253906 454.644531 3212.894531 448.867188 C 3222.535156 443.089844 3232.3125 437.550781 3242.222656 432.253906 C 3252.132812 426.953125 3262.171875 421.902344 3272.332031 417.097656 C 3282.488281 412.292969 3292.761719 407.738281 3303.144531 403.4375 C 3313.527344 399.136719 3324.011719 395.09375 3334.59375 391.308594 C 3345.175781 387.523438 3355.84375 383.996094 3366.597656 380.734375 C 3377.351562 377.472656 3388.183594 374.476562 3399.082031 371.746094 C 3409.984375 369.015625 3420.949219 366.550781 3431.972656 364.359375 C 3442.996094 362.167969 3454.0625 360.246094 3465.183594 358.597656 C 3476.300781 356.949219 3487.449219 355.574219 3498.632812 354.472656 C 3509.820312 353.371094 3521.023438 352.542969 3532.25 351.992188 C 3543.476562 351.441406 3554.707031 351.164062 3565.945312 351.164062 C 3577.183594 351.164062 3588.417969 351.441406 3599.644531 351.992188 C 3610.867188 352.542969 3622.074219 353.371094 3633.257812 354.472656 C 3644.441406 355.574219 3655.59375 356.949219 3666.710938 358.597656 C 3677.828125 360.246094 3688.898438 362.167969 3699.921875 364.359375 C 3710.945312 366.550781 3721.90625 369.015625 3732.808594 371.746094 C 3743.710938 374.476562 3754.539062 377.472656 3765.292969 380.734375 C 3776.050781 383.996094 3786.71875 387.523438 3797.300781 391.308594 C 3807.882812 395.09375 3818.363281 399.136719 3828.746094 403.4375 C 3839.132812 407.738281 3849.402344 412.292969 3859.5625 417.097656 C 3869.722656 421.902344 3879.757812 426.953125 3889.667969 432.253906 C 3899.582031 437.550781 3909.359375 443.089844 3918.996094 448.867188 C 3928.636719 454.644531 3938.128906 460.65625 3947.472656 466.898438 C 3956.820312 473.144531 3966.003906 479.613281 3975.03125 486.308594 C 3984.058594 493.003906 3992.917969 499.914062 4001.605469 507.046875 C 4010.292969 514.175781 4018.800781 521.515625 4027.128906 529.0625 C 4035.457031 536.609375 4043.59375 544.355469 4051.539062 552.304688 C 4059.488281 560.25 4067.234375 568.386719 4074.78125 576.714844 C 4082.328125 585.042969 4089.667969 593.550781 4096.796875 602.238281 C 4103.929688 610.925781 4110.839844 619.785156 4117.535156 628.8125 C 4124.230469 637.839844 4130.699219 647.023438 4136.945312 656.367188 C 4143.1875 665.714844 4149.199219 675.207031 4154.976562 684.847656 C 4160.753906 694.484375 4166.292969 704.261719 4171.589844 714.171875 C 4176.886719 724.085938 4181.941406 734.121094 4186.746094 744.28125 C 4191.550781 754.441406 4196.101562 764.710938 4200.40625 775.097656 C 4204.707031 785.480469 4208.75 795.960938 4212.535156 806.542969 C 4216.320312 817.125 4219.847656 827.792969 4223.109375 838.550781 C 4226.371094 849.304688 4229.367188 860.132812 4232.097656 871.035156 C 4234.828125 881.9375 4237.292969 892.898438 4239.484375 903.921875 C 4241.675781 914.945312 4243.597656 926.015625 4245.246094 937.132812 C 4246.894531 948.25 4248.269531 959.402344 4249.371094 970.585938 C 4250.472656 981.769531 4251.300781 992.976562 4251.851562 1004.199219 C 4252.402344 1015.425781 4252.679688 1026.65625 4252.679688 1037.898438 Z M 4252.679688 1037.898438 " fill-opacity="1" fill-rule="nonzero"/></g><g clip-path="url(#7401e7b911)"><path stroke-linecap="butt" transform="matrix(2.056086, 0, 0, 2.056086, 2877.15747, 349.108225)" fill="none" stroke-linejoin="miter" d="M 669.000303 335.000668 C 669.000303 340.466529 668.865414 345.92859 668.597536 351.388752 C 668.329657 356.848914 667.92689 362.297676 667.391133 367.73694 C 666.855376 373.178103 666.186629 378.600268 665.384894 384.007234 C 664.583158 389.4142 663.648433 394.798367 662.582619 400.159737 C 661.516804 405.521107 660.318 410.852079 658.990007 416.154553 C 657.662014 421.457027 656.204831 426.723405 654.618458 431.955585 C 653.032085 437.185865 651.316523 442.374348 649.475571 447.521035 C 647.634619 452.667722 645.668276 457.766913 643.576544 462.816707 C 641.482912 467.866502 639.26959 472.861201 636.932778 477.802704 C 634.595965 482.744208 632.137563 487.624916 629.561369 492.446729 C 626.985176 497.266642 624.291192 502.02196 621.481318 506.710784 C 618.671444 511.399607 615.747578 516.016237 612.711622 520.560672 C 609.673766 525.105107 606.527618 529.573549 603.27128 533.964096 C 600.014941 538.354644 596.652211 542.661598 593.184989 546.886859 C 589.717768 551.11212 586.147954 555.249987 582.477449 559.300462 C 578.806944 563.350937 575.039546 567.308319 571.173356 571.174509 C 567.309067 575.038799 563.351684 578.806196 559.301209 582.478602 C 555.250735 586.149107 551.112867 589.717021 546.887606 593.186142 C 542.662345 596.653364 538.353491 600.014194 533.962943 603.270533 C 529.572396 606.526871 525.105854 609.674918 520.559519 612.710875 C 516.015084 615.746831 511.398455 618.670696 506.709631 621.480571 C 502.022707 624.292345 497.267389 626.984429 492.445576 629.562522 C 487.625663 632.138715 482.744955 634.595218 477.803452 636.93203 C 472.861948 639.268843 467.867249 641.484065 462.815555 643.575797 C 457.76576 645.667529 452.668469 647.633871 447.521782 649.474824 C 442.375096 651.317676 437.186612 653.031338 431.954432 654.617711 C 426.724152 656.204083 421.457775 657.663166 416.1553 658.99116 C 410.852826 660.319153 405.521854 661.516057 400.160484 662.581871 C 394.799115 663.649586 389.414947 664.582411 384.007981 665.384146 C 378.601015 666.187782 373.17695 666.856528 367.737687 667.392285 C 362.298424 667.928042 356.847761 668.32891 351.389499 668.596789 C 345.929338 668.866567 340.465376 668.999556 334.999515 668.999556 C 329.533654 668.999556 324.071592 668.866567 318.611431 668.596789 C 313.151269 668.32891 307.702506 667.928042 302.261343 667.392285 C 296.82208 666.856528 291.399915 666.187782 285.992949 665.384146 C 280.584083 664.582411 275.201815 663.649586 269.840446 662.581871 C 264.479076 661.516057 259.146204 660.319153 253.84373 658.99116 C 248.543155 657.663166 243.274878 656.204083 238.044598 654.617711 C 232.814318 653.031338 227.625834 651.317676 222.479147 649.474824 C 217.332461 647.633871 212.23327 645.667529 207.183475 643.575797 C 202.133681 641.484065 197.137082 639.268843 192.197478 636.93203 C 187.255975 634.595218 182.373367 632.138715 177.553454 629.562522 C 172.733541 626.984429 167.978223 624.292345 163.289399 621.480571 C 158.600575 618.670696 153.983946 615.746831 149.439511 612.710875 C 144.895075 609.674918 140.426634 606.526871 136.036087 603.270533 C 131.645539 600.014194 127.338585 596.653364 123.113324 593.186142 C 118.888063 589.717021 114.750195 586.149107 110.69972 582.476702 C 106.649246 578.806196 102.691863 575.038799 98.825674 571.174509 C 94.961384 567.308319 91.193986 563.350937 87.521581 559.300462 C 83.851076 555.249987 80.281262 551.11212 76.814041 546.886859 C 73.346819 542.661598 69.984089 538.354644 66.72775 533.964096 C 63.473312 529.573549 60.325264 525.105107 57.289308 520.560672 C 54.251452 516.016237 51.329486 511.399607 48.517712 506.710784 C 45.707838 502.02196 43.015754 497.266642 40.437661 492.446729 C 37.861468 487.624916 35.404965 482.744208 33.068152 477.802704 C 30.73134 472.861201 28.516118 467.866502 26.424386 462.816707 C 24.332654 457.766913 22.366311 452.667722 20.523459 447.521035 C 18.682507 442.374348 16.968845 437.185865 15.382472 431.955585 C 13.796099 426.723405 12.337016 421.457027 11.009023 416.154553 C 9.68103 410.852079 8.484126 405.521107 7.418311 400.159737 C 6.350597 394.798367 5.417772 389.4142 4.614136 384.007234 C 3.812401 378.600268 3.143654 373.178103 2.607897 367.73694 C 2.07214 362.297676 1.671273 356.848914 1.401494 351.388752 C 1.133616 345.92859 1.000626 340.466529 1.000626 335.000668 C 1.000626 329.532907 1.133616 324.070845 1.401494 318.610683 C 1.671273 313.152422 2.07214 307.701759 2.607897 302.262496 C 3.143654 296.823232 3.812401 291.399168 4.614136 285.992202 C 5.417772 280.585236 6.350597 275.201068 7.418311 269.839698 C 8.484126 264.478329 9.68103 259.147357 11.009023 253.844882 C 12.337016 248.542408 13.796099 243.276031 15.382472 238.045751 C 16.968845 232.813571 18.682507 227.625087 20.523459 222.4784 C 22.366311 217.331713 24.332654 212.234423 26.424386 207.184628 C 28.516118 202.132934 30.73134 197.138234 33.068152 192.196731 C 35.404965 187.255228 37.861468 182.37452 40.437661 177.552707 C 43.015754 172.732794 45.707838 167.977475 48.517712 163.290552 C 51.329486 158.601728 54.251452 153.985099 57.289308 149.438763 C 60.325264 144.894328 63.473312 140.427787 66.72775 136.037239 C 69.984089 131.646692 73.346819 127.337838 76.814041 123.112577 C 80.281262 118.887316 83.851076 114.749448 87.521581 110.698973 C 91.193986 106.648498 94.961384 102.691116 98.825674 98.826826 C 102.691863 94.960637 106.649246 91.193239 110.69972 87.522734 C 114.750195 83.852228 118.888063 80.282415 123.113324 76.815193 C 127.338585 73.346072 131.645539 69.985242 136.036087 66.728903 C 140.426634 63.472564 144.895075 60.326417 149.439511 57.288561 C 153.983946 54.252604 158.600575 51.328739 163.289399 48.518865 C 167.978223 45.70899 172.733541 43.015007 177.553454 40.438813 C 182.373367 37.86072 187.255975 35.404218 192.197478 33.067405 C 197.137082 30.730593 202.133681 28.515371 207.183475 26.423638 C 212.23327 24.331906 217.332461 22.365564 222.479147 20.524612 C 227.625834 18.68366 232.814318 16.968097 238.044598 15.381725 C 243.274878 13.795352 248.543155 12.338169 253.84373 11.010176 C 259.146204 9.682182 264.479076 8.483379 269.840446 7.417564 C 275.201815 6.35175 280.584083 5.417025 285.992949 4.615289 C 291.399915 3.813553 296.82208 3.144807 302.261343 2.60905 C 307.702506 2.073293 313.151269 1.670525 318.611431 1.402647 C 324.071592 1.134768 329.533654 0.999879 334.999515 0.999879 C 340.465376 0.999879 345.929338 1.134768 351.389499 1.402647 C 356.847761 1.670525 362.298424 2.073293 367.737687 2.60905 C 373.17695 3.144807 378.601015 3.813553 384.007981 4.615289 C 389.414947 5.417025 394.799115 6.35175 400.160484 7.417564 C 405.521854 8.483379 410.852826 9.682182 416.1553 11.010176 C 421.457775 12.338169 426.724152 13.795352 431.954432 15.381725 C 437.186612 16.968097 442.375096 18.68366 447.521782 20.524612 C 452.668469 22.365564 457.76576 24.331906 462.815555 26.423638 C 467.867249 28.515371 472.861948 30.730593 477.803452 33.067405 C 482.744955 35.404218 487.625663 37.86072 492.445576 40.438813 C 497.267389 43.015007 502.022707 45.70899 506.709631 48.518865 C 511.398455 51.328739 516.015084 54.252604 520.559519 57.288561 C 525.105854 60.326417 529.572396 63.472564 533.962943 66.728903 C 538.353491 69.985242 542.662345 73.346072 546.887606 76.815193 C 551.112867 80.282415 555.250735 83.852228 559.301209 87.522734 C 563.351684 91.193239 567.309067 94.960637 571.173356 98.826826 C 575.039546 102.691116 578.806944 106.648498 582.477449 110.698973 C 586.147954 114.749448 589.717768 118.887316 593.184989 123.112577 C 596.654111 127.337838 600.014941 131.646692 603.27128 136.037239 C 606.527618 140.427787 609.673766 144.894328 612.711622 149.438763 C 615.747578 153.985099 618.671444 158.601728 621.481318 163.290552 C 624.291192 167.977475 626.985176 172.732794 629.561369 177.552707 C 632.137563 182.37452 634.595965 187.255228 636.932778 192.196731 C 639.26959 197.138234 641.482912 202.132934 643.576544 207.184628 C 645.668276 212.234423 647.634619 217.331713 649.475571 222.4784 C 651.316523 227.625087 653.032085 232.813571 654.618458 238.045751 C 656.204831 243.276031 657.662014 248.542408 658.990007 253.844882 C 660.318 259.147357 661.516804 264.478329 662.582619 269.839698 C 663.648433 275.201068 664.583158 280.585236 665.384894 285.992202 C 666.186629 291.399168 666.855376 296.823232 667.391133 302.262496 C 667.92689 307.701759 668.329657 313.152422 668.597536 318.610683 C 668.865414 324.070845 669.000303 329.532907 669.000303 335.000668 Z M 669.000303 335.000668 " stroke="url(#33f9dcc324)" stroke-width="2" stroke-miterlimit="4"/></g><g clip-path="url(#beebb7a8fa)"><path fill="#40bbff" d="M 1130.433594 1274.703125 L 1419.085938 1115.023438 L 1419.085938 1161.296875 L 1173.980469 1292.820312 L 1173.980469 1294.148438 L 1419.085938 1425.664062 L 1419.085938 1471.988281 L 1130.433594 1312.277344 Z M 1130.433594 1274.703125 " fill-opacity="1" fill-rule="nonzero"/></g><g fill="#ffffff" fill-opacity="1"><g transform="translate(1573.725436, 1273.217987)"><g><path d="M 39.28125 -68.984375 C 49.90625 -68.984375 58.734375 -65.675781 65.765625 -59.0625 C 72.796875 -52.457031 76.3125 -44.203125 76.3125 -34.296875 C 76.3125 -24.328125 72.773438 -15.988281 65.703125 -9.28125 C 58.640625 -2.570312 49.832031 0.78125 39.28125 0.78125 C 28.726562 0.78125 19.929688 -2.554688 12.890625 -9.234375 C 5.859375 -15.910156 2.34375 -24.265625 2.34375 -34.296875 C 2.34375 -44.265625 5.859375 -52.535156 12.890625 -59.109375 C 19.929688 -65.691406 28.726562 -68.984375 39.28125 -68.984375 Z M 39.484375 -54.421875 C 34.140625 -54.421875 29.578125 -52.484375 25.796875 -48.609375 C 22.015625 -44.734375 20.125 -39.929688 20.125 -34.203125 C 20.125 -28.472656 22.03125 -23.632812 25.84375 -19.6875 C 29.65625 -15.75 34.195312 -13.78125 39.46875 -13.78125 C 44.75 -13.78125 49.226562 -15.75 52.90625 -19.6875 C 56.59375 -23.632812 58.4375 -28.472656 58.4375 -34.203125 C 58.4375 -39.929688 56.59375 -44.734375 52.90625 -48.609375 C 49.226562 -52.484375 44.753906 -54.421875 39.484375 -54.421875 Z M 39.484375 -54.421875 "/></g></g></g><g fill="#ffffff" fill-opacity="1"><g transform="translate(1652.391472, 1273.217987)"><g><path d="M 24.140625 0 L 7.234375 0 L 7.234375 -72.5 L 24.140625 -72.5 Z M 24.140625 0 "/></g></g></g><g fill="#ffffff" fill-opacity="1"><g transform="translate(1683.760169, 1273.217987)"><g><path d="M 33.71875 -58.625 L 20.8125 -58.625 L 31.171875 -75.046875 L 46.421875 -69.671875 Z M 30.390625 -53.453125 C 37.617188 -53.453125 43.234375 -51.773438 47.234375 -48.421875 C 51.242188 -45.066406 53.285156 -40.390625 53.359375 -34.390625 L 53.359375 0 L 36.84375 0 L 36.84375 -6.0625 C 33.382812 -1.5 28.007812 0.78125 20.71875 0.78125 C 15.175781 0.78125 10.773438 -0.75 7.515625 -3.8125 C 4.265625 -6.875 2.640625 -10.847656 2.640625 -15.734375 C 2.640625 -20.742188 4.378906 -24.632812 7.859375 -27.40625 C 11.347656 -30.175781 16.347656 -31.59375 22.859375 -31.65625 L 36.75 -31.65625 L 36.75 -32.4375 C 36.75 -35.039062 35.882812 -37.078125 34.15625 -38.546875 C 32.425781 -40.015625 29.867188 -40.75 26.484375 -40.75 C 21.722656 -40.75 16.476562 -39.28125 10.75 -36.34375 L 5.953125 -47.484375 C 14.492188 -51.460938 22.640625 -53.453125 30.390625 -53.453125 Z M 25.890625 -10.65625 C 28.566406 -10.65625 30.910156 -11.320312 32.921875 -12.65625 C 34.941406 -13.988281 36.21875 -15.726562 36.75 -17.875 L 36.75 -22.578125 L 26.09375 -22.578125 C 21.007812 -22.578125 18.46875 -20.6875 18.46875 -16.90625 C 18.46875 -14.945312 19.117188 -13.414062 20.421875 -12.3125 C 21.722656 -11.207031 23.546875 -10.65625 25.890625 -10.65625 Z M 25.890625 -10.65625 "/></g></g></g><g fill="#ffffff" fill-opacity="1"><g transform="translate(1742.393255, 1273.217987)"><g><path d="M 11.921875 -15.4375 C 14.203125 -15.4375 16.109375 -14.71875 17.640625 -13.28125 C 19.171875 -11.851562 19.9375 -9.898438 19.9375 -7.421875 C 19.9375 -5.335938 19.21875 -3.191406 17.78125 -0.984375 L 10.65625 9.375 L 2.640625 9.375 L 7.03125 -1.078125 C 4.882812 -2.503906 3.8125 -4.617188 3.8125 -7.421875 C 3.8125 -9.765625 4.578125 -11.6875 6.109375 -13.1875 C 7.640625 -14.6875 9.578125 -15.4375 11.921875 -15.4375 Z M 11.921875 -15.4375 "/></g></g></g><g fill="#ffffff" fill-opacity="1"><g transform="translate(1765.944194, 1273.217987)"><g/></g></g><g fill="#ffffff" fill-opacity="1"><g transform="translate(1788.615621, 1273.217987)"><g><path d="M 77.09375 -53.453125 C 82.894531 -53.453125 87.503906 -51.609375 90.921875 -47.921875 C 94.347656 -44.242188 96.0625 -39.34375 96.0625 -33.21875 L 96.0625 0 L 79.25 0 L 79.25 -28.53125 C 79.25 -31.65625 78.429688 -34.113281 76.796875 -35.90625 C 75.171875 -37.695312 72.957031 -38.59375 70.15625 -38.59375 C 67.03125 -38.53125 64.539062 -37.34375 62.6875 -35.03125 C 60.832031 -32.71875 59.90625 -29.738281 59.90625 -26.09375 L 59.90625 0 L 43 0 L 43 -28.53125 C 43 -31.65625 42.195312 -34.113281 40.59375 -35.90625 C 39 -37.695312 36.800781 -38.59375 34 -38.59375 C 30.8125 -38.53125 28.269531 -37.328125 26.375 -34.984375 C 24.488281 -32.640625 23.546875 -29.675781 23.546875 -26.09375 L 23.546875 0 L 6.75 0 L 6.75 -52.671875 L 23.546875 -52.671875 L 23.546875 -43.96875 C 27.128906 -50.15625 32.925781 -53.316406 40.9375 -53.453125 C 45.175781 -53.453125 48.84375 -52.390625 51.9375 -50.265625 C 55.03125 -48.148438 57.226562 -45.238281 58.53125 -41.53125 C 61.988281 -49.34375 68.175781 -53.316406 77.09375 -53.453125 Z M 77.09375 -53.453125 "/></g></g></g><g fill="#ffffff" fill-opacity="1"><g transform="translate(1889.953085, 1273.217987)"><g><path d="M 29.796875 -53.25 C 38.921875 -53.25 45.78125 -50.445312 50.375 -44.84375 C 54.96875 -39.25 56.972656 -31.566406 56.390625 -21.796875 L 19.34375 -21.796875 C 20.195312 -18.660156 21.695312 -16.242188 23.84375 -14.546875 C 25.988281 -12.859375 28.628906 -12.015625 31.765625 -12.015625 C 36.578125 -12.015625 40.773438 -13.804688 44.359375 -17.390625 L 53.25 -8.703125 C 47.582031 -2.503906 39.929688 0.59375 30.296875 0.59375 C 21.753906 0.59375 14.957031 -1.847656 9.90625 -6.734375 C 4.863281 -11.628906 2.34375 -18.113281 2.34375 -26.1875 C 2.34375 -34.332031 4.863281 -40.878906 9.90625 -45.828125 C 14.957031 -50.773438 21.585938 -53.25 29.796875 -53.25 Z M 19.0625 -30.875 L 40.15625 -30.875 C 40.15625 -34.070312 39.226562 -36.644531 37.375 -38.59375 C 35.519531 -40.550781 33.0625 -41.53125 30 -41.53125 C 27.132812 -41.53125 24.722656 -40.566406 22.765625 -38.640625 C 20.816406 -36.722656 19.582031 -34.132812 19.0625 -30.875 Z M 19.0625 -30.875 "/></g></g></g><g fill="#ffffff" fill-opacity="1"><g transform="translate(1948.781569, 1273.217987)"><g/></g></g><g fill="#ffffff" fill-opacity="1"><g transform="translate(1971.452997, 1273.217987)"><g><path d="M 29.703125 -53.25 C 34.921875 -53.25 39.5625 -52.222656 43.625 -50.171875 C 47.695312 -48.117188 50.875 -45.207031 53.15625 -41.4375 L 41.046875 -34.109375 C 38.441406 -37.753906 34.890625 -39.578125 30.390625 -39.578125 C 27.128906 -39.578125 24.472656 -38.351562 22.421875 -35.90625 C 20.367188 -33.46875 19.34375 -30.257812 19.34375 -26.28125 C 19.34375 -22.25 20.351562 -19.007812 22.375 -16.5625 C 24.394531 -14.125 27.066406 -12.90625 30.390625 -12.90625 C 35.335938 -12.90625 38.921875 -14.890625 41.140625 -18.859375 L 53.453125 -11.625 C 51.304688 -7.71875 48.160156 -4.703125 44.015625 -2.578125 C 39.878906 -0.460938 35.046875 0.59375 29.515625 0.59375 C 21.367188 0.59375 14.800781 -1.863281 9.8125 -6.78125 C 4.832031 -11.707031 2.34375 -18.175781 2.34375 -26.1875 C 2.34375 -34.269531 4.863281 -40.800781 9.90625 -45.78125 C 14.957031 -50.757812 21.554688 -53.25 29.703125 -53.25 Z M 29.703125 -53.25 "/></g></g></g><g fill="#ffffff" fill-opacity="1"><g transform="translate(2026.372633, 1273.217987)"><g><path d="M 41.828125 -53.453125 C 47.617188 -53.453125 52.273438 -51.609375 55.796875 -47.921875 C 59.316406 -44.242188 61.078125 -39.34375 61.078125 -33.21875 L 61.078125 0 L 44.171875 0 L 44.171875 -28.53125 C 44.171875 -31.59375 43.335938 -34.019531 41.671875 -35.8125 C 40.015625 -37.601562 37.753906 -38.5 34.890625 -38.5 C 31.628906 -38.5 29.019531 -37.328125 27.0625 -34.984375 C 25.113281 -32.640625 24.140625 -29.644531 24.140625 -26 L 24.140625 0 L 7.234375 0 L 7.234375 -72.5 L 24.140625 -72.5 L 24.140625 -43.96875 C 27.847656 -50.15625 33.742188 -53.316406 41.828125 -53.453125 Z M 41.828125 -53.453125 "/></g></g></g><g fill="#ffffff" fill-opacity="1"><g transform="translate(2092.628014, 1273.217987)"><g><path d="M 30.390625 -53.453125 C 37.617188 -53.453125 43.234375 -51.773438 47.234375 -48.421875 C 51.242188 -45.066406 53.285156 -40.390625 53.359375 -34.390625 L 53.359375 0 L 36.84375 0 L 36.84375 -6.0625 C 33.382812 -1.5 28.007812 0.78125 20.71875 0.78125 C 15.175781 0.78125 10.773438 -0.75 7.515625 -3.8125 C 4.265625 -6.875 2.640625 -10.847656 2.640625 -15.734375 C 2.640625 -20.742188 4.378906 -24.632812 7.859375 -27.40625 C 11.347656 -30.175781 16.347656 -31.59375 22.859375 -31.65625 L 36.75 -31.65625 L 36.75 -32.4375 C 36.75 -35.039062 35.882812 -37.078125 34.15625 -38.546875 C 32.425781 -40.015625 29.867188 -40.75 26.484375 -40.75 C 21.722656 -40.75 16.476562 -39.28125 10.75 -36.34375 L 5.953125 -47.484375 C 14.492188 -51.460938 22.640625 -53.453125 30.390625 -53.453125 Z M 25.890625 -10.65625 C 28.566406 -10.65625 30.910156 -11.320312 32.921875 -12.65625 C 34.941406 -13.988281 36.21875 -15.726562 36.75 -17.875 L 36.75 -22.578125 L 26.09375 -22.578125 C 21.007812 -22.578125 18.46875 -20.6875 18.46875 -16.90625 C 18.46875 -14.945312 19.117188 -13.414062 20.421875 -12.3125 C 21.722656 -11.207031 23.546875 -10.65625 25.890625 -10.65625 Z M 25.890625 -10.65625 "/></g></g></g><g fill="#ffffff" fill-opacity="1"><g transform="translate(2151.2611, 1273.217987)"><g><path d="M 77.09375 -53.453125 C 82.894531 -53.453125 87.503906 -51.609375 90.921875 -47.921875 C 94.347656 -44.242188 96.0625 -39.34375 96.0625 -33.21875 L 96.0625 0 L 79.25 0 L 79.25 -28.53125 C 79.25 -31.65625 78.429688 -34.113281 76.796875 -35.90625 C 75.171875 -37.695312 72.957031 -38.59375 70.15625 -38.59375 C 67.03125 -38.53125 64.539062 -37.34375 62.6875 -35.03125 C 60.832031 -32.71875 59.90625 -29.738281 59.90625 -26.09375 L 59.90625 0 L 43 0 L 43 -28.53125 C 43 -31.65625 42.195312 -34.113281 40.59375 -35.90625 C 39 -37.695312 36.800781 -38.59375 34 -38.59375 C 30.8125 -38.53125 28.269531 -37.328125 26.375 -34.984375 C 24.488281 -32.640625 23.546875 -29.675781 23.546875 -26.09375 L 23.546875 0 L 6.75 0 L 6.75 -52.671875 L 23.546875 -52.671875 L 23.546875 -43.96875 C 27.128906 -50.15625 32.925781 -53.316406 40.9375 -53.453125 C 45.175781 -53.453125 48.84375 -52.390625 51.9375 -50.265625 C 55.03125 -48.148438 57.226562 -45.238281 58.53125 -41.53125 C 61.988281 -49.34375 68.175781 -53.316406 77.09375 -53.453125 Z M 77.09375 -53.453125 "/></g></g></g><g fill="#ffffff" fill-opacity="1"><g transform="translate(2252.598563, 1273.217987)"><g><path d="M 31.171875 -53.25 C 39.773438 -53.25 46.710938 -50.789062 51.984375 -45.875 C 57.265625 -40.957031 59.90625 -34.457031 59.90625 -26.375 C 59.90625 -18.300781 57.265625 -11.785156 51.984375 -6.828125 C 46.710938 -1.878906 39.773438 0.59375 31.171875 0.59375 C 22.503906 0.59375 15.53125 -1.878906 10.25 -6.828125 C 4.976562 -11.785156 2.34375 -18.300781 2.34375 -26.375 C 2.34375 -34.457031 4.976562 -40.957031 10.25 -45.875 C 15.53125 -50.789062 22.503906 -53.25 31.171875 -53.25 Z M 31.171875 -39.875 C 27.648438 -39.875 24.796875 -38.601562 22.609375 -36.0625 C 20.429688 -33.519531 19.34375 -30.226562 19.34375 -26.1875 C 19.34375 -22.082031 20.429688 -18.773438 22.609375 -16.265625 C 24.796875 -13.765625 27.648438 -12.515625 31.171875 -12.515625 C 34.617188 -12.515625 37.4375 -13.765625 39.625 -16.265625 C 41.8125 -18.773438 42.90625 -22.082031 42.90625 -26.1875 C 42.90625 -30.226562 41.8125 -33.519531 39.625 -36.0625 C 37.4375 -38.601562 34.617188 -39.875 31.171875 -39.875 Z M 31.171875 -39.875 "/></g></g></g><g fill="#ffffff" fill-opacity="1"><g transform="translate(2314.847305, 1273.217987)"><g/></g></g><g fill="#ffffff" fill-opacity="1"><g transform="translate(2337.518732, 1273.217987)"><g><path d="M 46.703125 -68.5 L 46.703125 -22.1875 C 46.703125 -14.945312 44.601562 -9.304688 40.40625 -5.265625 C 36.207031 -1.234375 30.425781 0.78125 23.0625 0.78125 C 13.75 0.78125 5.898438 -2.863281 -0.484375 -10.15625 L 7.53125 -21.796875 C 12.414062 -16.710938 17.203125 -14.171875 21.890625 -14.171875 C 26.773438 -14.171875 29.21875 -16.972656 29.21875 -22.578125 L 29.21875 -54.421875 L 5.765625 -54.421875 L 5.765625 -68.5 Z M 46.703125 -68.5 "/></g></g></g><g fill="#ffffff" fill-opacity="1"><g transform="translate(2389.897624, 1273.217987)"><g><path d="M 31.171875 -53.25 C 39.773438 -53.25 46.710938 -50.789062 51.984375 -45.875 C 57.265625 -40.957031 59.90625 -34.457031 59.90625 -26.375 C 59.90625 -18.300781 57.265625 -11.785156 51.984375 -6.828125 C 46.710938 -1.878906 39.773438 0.59375 31.171875 0.59375 C 22.503906 0.59375 15.53125 -1.878906 10.25 -6.828125 C 4.976562 -11.785156 2.34375 -18.300781 2.34375 -26.375 C 2.34375 -34.457031 4.976562 -40.957031 10.25 -45.875 C 15.53125 -50.789062 22.503906 -53.25 31.171875 -53.25 Z M 31.171875 -39.875 C 27.648438 -39.875 24.796875 -38.601562 22.609375 -36.0625 C 20.429688 -33.519531 19.34375 -30.226562 19.34375 -26.1875 C 19.34375 -22.082031 20.429688 -18.773438 22.609375 -16.265625 C 24.796875 -13.765625 27.648438 -12.515625 31.171875 -12.515625 C 34.617188 -12.515625 37.4375 -13.765625 39.625 -16.265625 C 41.8125 -18.773438 42.90625 -22.082031 42.90625 -26.1875 C 42.90625 -30.226562 41.8125 -33.519531 39.625 -36.0625 C 37.4375 -38.601562 34.617188 -39.875 31.171875 -39.875 Z M 31.171875 -39.875 "/></g></g></g><g fill="#ffffff" fill-opacity="1"><g transform="translate(2452.146365, 1273.217987)"><g><path d="M 25.609375 -53.453125 C 33.359375 -53.453125 40.585938 -51.460938 47.296875 -47.484375 L 41.53125 -36.546875 C 35.019531 -40.066406 29.484375 -41.828125 24.921875 -41.828125 C 21.460938 -41.828125 19.734375 -40.617188 19.734375 -38.203125 C 19.734375 -36.898438 20.675781 -35.804688 22.5625 -34.921875 C 24.457031 -34.046875 26.769531 -33.25 29.5 -32.53125 C 32.238281 -31.820312 34.957031 -30.925781 37.65625 -29.84375 C 40.363281 -28.769531 42.660156 -27.0625 44.546875 -24.71875 C 46.441406 -22.375 47.390625 -19.507812 47.390625 -16.125 C 47.390625 -10.84375 45.335938 -6.71875 41.234375 -3.75 C 37.128906 -0.789062 31.789062 0.6875 25.21875 0.6875 C 15.894531 0.6875 8.007812 -1.789062 1.5625 -6.75 L 6.9375 -17.484375 C 13.125 -13.117188 19.347656 -10.9375 25.609375 -10.9375 C 29.453125 -10.9375 31.375 -12.144531 31.375 -14.5625 C 31.375 -15.925781 30.441406 -17.0625 28.578125 -17.96875 C 26.722656 -18.882812 24.457031 -19.703125 21.78125 -20.421875 C 19.113281 -21.140625 16.441406 -22.035156 13.765625 -23.109375 C 11.097656 -24.179688 8.835938 -25.859375 6.984375 -28.140625 C 5.128906 -30.421875 4.203125 -33.289062 4.203125 -36.75 C 4.203125 -42.019531 6.1875 -46.117188 10.15625 -49.046875 C 14.132812 -51.984375 19.285156 -53.453125 25.609375 -53.453125 Z M 25.609375 -53.453125 "/></g></g></g><g fill="#ffffff" fill-opacity="1"><g transform="translate(2502.277641, 1273.217987)"><g><path d="M 33.8125 -58.625 L 20.90625 -58.625 L 31.265625 -75.046875 L 46.515625 -69.671875 Z M 29.796875 -53.25 C 38.921875 -53.25 45.78125 -50.445312 50.375 -44.84375 C 54.96875 -39.25 56.972656 -31.566406 56.390625 -21.796875 L 19.34375 -21.796875 C 20.195312 -18.660156 21.695312 -16.242188 23.84375 -14.546875 C 25.988281 -12.859375 28.628906 -12.015625 31.765625 -12.015625 C 36.578125 -12.015625 40.773438 -13.804688 44.359375 -17.390625 L 53.25 -8.703125 C 47.582031 -2.503906 39.929688 0.59375 30.296875 0.59375 C 21.753906 0.59375 14.957031 -1.847656 9.90625 -6.734375 C 4.863281 -11.628906 2.34375 -18.113281 2.34375 -26.1875 C 2.34375 -34.332031 4.863281 -40.878906 9.90625 -45.828125 C 14.957031 -50.773438 21.585938 -53.25 29.796875 -53.25 Z M 19.0625 -30.875 L 40.15625 -30.875 C 40.15625 -34.070312 39.226562 -36.644531 37.375 -38.59375 C 35.519531 -40.550781 33.0625 -41.53125 30 -41.53125 C 27.132812 -41.53125 24.722656 -40.566406 22.765625 -38.640625 C 20.816406 -36.722656 19.582031 -34.132812 19.0625 -30.875 Z M 19.0625 -30.875 "/></g></g></g><g fill="#ffffff" fill-opacity="1"><g transform="translate(1573.725436, 1387.227054)"><g><path d="M 52.28125 -34.78125 L 67.328125 -34.78125 L 67.328125 -8.109375 C 63.617188 -5.503906 59.140625 -3.367188 53.890625 -1.703125 C 48.648438 -0.046875 43.648438 0.78125 38.890625 0.78125 C 28.460938 0.78125 19.765625 -2.554688 12.796875 -9.234375 C 5.828125 -15.910156 2.34375 -24.234375 2.34375 -34.203125 C 2.34375 -44.109375 5.925781 -52.378906 13.09375 -59.015625 C 20.257812 -65.660156 29.25 -68.984375 40.0625 -68.984375 C 45.144531 -68.984375 50.191406 -68.070312 55.203125 -66.25 C 60.222656 -64.425781 64.492188 -61.953125 68.015625 -58.828125 L 58.234375 -47 C 55.765625 -49.28125 52.898438 -51.085938 49.640625 -52.421875 C 46.378906 -53.753906 43.15625 -54.421875 39.96875 -54.421875 C 34.363281 -54.421875 29.65625 -52.484375 25.84375 -48.609375 C 22.03125 -44.734375 20.125 -39.929688 20.125 -34.203125 C 20.125 -28.398438 22.046875 -23.546875 25.890625 -19.640625 C 29.734375 -15.734375 34.488281 -13.78125 40.15625 -13.78125 C 43.8125 -13.78125 47.851562 -14.882812 52.28125 -17.09375 Z M 52.28125 -34.78125 "/></g></g></g><g fill="#ffffff" fill-opacity="1"><g transform="translate(1646.332742, 1387.227054)"><g><path d="M 58.046875 -52.671875 L 58.046875 0 L 41.140625 0 L 41.140625 -8.703125 C 37.554688 -2.441406 31.851562 0.6875 24.03125 0.6875 C 18.300781 0.6875 13.722656 -1.132812 10.296875 -4.78125 C 6.878906 -8.4375 5.171875 -13.328125 5.171875 -19.453125 L 5.171875 -52.671875 L 22.078125 -52.671875 L 22.078125 -24.234375 C 22.078125 -21.109375 22.875 -18.648438 24.46875 -16.859375 C 26.070312 -15.066406 28.207031 -14.171875 30.875 -14.171875 C 34.070312 -14.234375 36.582031 -15.421875 38.40625 -17.734375 C 40.226562 -20.046875 41.140625 -23.023438 41.140625 -26.671875 L 41.140625 -52.671875 Z M 58.046875 -52.671875 "/></g></g></g><g fill="#ffffff" fill-opacity="1"><g transform="translate(1711.12229, 1387.227054)"><g><path d="M 8.84375 -74.203125 C 10.5 -75.867188 12.628906 -76.703125 15.234375 -76.703125 C 17.847656 -76.703125 19.984375 -75.867188 21.640625 -74.203125 C 23.304688 -72.546875 24.140625 -70.414062 24.140625 -67.8125 C 24.140625 -65.207031 23.304688 -63.054688 21.640625 -61.359375 C 19.984375 -59.671875 17.847656 -58.828125 15.234375 -58.828125 C 12.628906 -58.828125 10.5 -59.671875 8.84375 -61.359375 C 7.1875 -63.054688 6.359375 -65.207031 6.359375 -67.8125 C 6.359375 -70.414062 7.1875 -72.546875 8.84375 -74.203125 Z M 23.546875 0 L 6.75 0 L 6.75 -52.671875 L 23.546875 -52.671875 Z M 23.546875 0 "/></g></g></g><g fill="#ffffff" fill-opacity="1"><g transform="translate(1741.513743, 1387.227054)"><g><path d="M 24.140625 0 L 7.234375 0 L 7.234375 -72.5 L 24.140625 -72.5 Z M 24.140625 0 "/></g></g></g><g fill="#ffffff" fill-opacity="1"><g transform="translate(1772.88244, 1387.227054)"><g><path d="M 41.828125 -53.453125 C 47.617188 -53.453125 52.273438 -51.609375 55.796875 -47.921875 C 59.316406 -44.242188 61.078125 -39.34375 61.078125 -33.21875 L 61.078125 0 L 44.171875 0 L 44.171875 -28.53125 C 44.171875 -31.59375 43.335938 -34.019531 41.671875 -35.8125 C 40.015625 -37.601562 37.753906 -38.5 34.890625 -38.5 C 31.628906 -38.5 29.019531 -37.328125 27.0625 -34.984375 C 25.113281 -32.640625 24.140625 -29.644531 24.140625 -26 L 24.140625 0 L 7.234375 0 L 7.234375 -72.5 L 24.140625 -72.5 L 24.140625 -43.96875 C 27.847656 -50.15625 33.742188 -53.316406 41.828125 -53.453125 Z M 41.828125 -53.453125 "/></g></g></g><g fill="#ffffff" fill-opacity="1"><g transform="translate(1839.137822, 1387.227054)"><g><path d="M 29.796875 -53.25 C 38.921875 -53.25 45.78125 -50.445312 50.375 -44.84375 C 54.96875 -39.25 56.972656 -31.566406 56.390625 -21.796875 L 19.34375 -21.796875 C 20.195312 -18.660156 21.695312 -16.242188 23.84375 -14.546875 C 25.988281 -12.859375 28.628906 -12.015625 31.765625 -12.015625 C 36.578125 -12.015625 40.773438 -13.804688 44.359375 -17.390625 L 53.25 -8.703125 C 47.582031 -2.503906 39.929688 0.59375 30.296875 0.59375 C 21.753906 0.59375 14.957031 -1.847656 9.90625 -6.734375 C 4.863281 -11.628906 2.34375 -18.113281 2.34375 -26.1875 C 2.34375 -34.332031 4.863281 -40.878906 9.90625 -45.828125 C 14.957031 -50.773438 21.585938 -53.25 29.796875 -53.25 Z M 19.0625 -30.875 L 40.15625 -30.875 C 40.15625 -34.070312 39.226562 -36.644531 37.375 -38.59375 C 35.519531 -40.550781 33.0625 -41.53125 30 -41.53125 C 27.132812 -41.53125 24.722656 -40.566406 22.765625 -38.640625 C 20.816406 -36.722656 19.582031 -34.132812 19.0625 -30.875 Z M 19.0625 -30.875 "/></g></g></g><g fill="#ffffff" fill-opacity="1"><g transform="translate(1897.966306, 1387.227054)"><g><path d="M 23.640625 -52.671875 L 23.640625 -43.78125 C 27.359375 -50.09375 33.0625 -53.316406 40.75 -53.453125 L 40.75 -38.203125 C 35.925781 -38.660156 31.984375 -37.863281 28.921875 -35.8125 C 25.859375 -33.757812 24.097656 -30.84375 23.640625 -27.0625 L 23.640625 0 L 6.75 0 L 6.75 -52.671875 Z M 23.640625 -52.671875 "/></g></g></g><g fill="#ffffff" fill-opacity="1"><g transform="translate(1939.693504, 1387.227054)"><g><path d="M 77.09375 -53.453125 C 82.894531 -53.453125 87.503906 -51.609375 90.921875 -47.921875 C 94.347656 -44.242188 96.0625 -39.34375 96.0625 -33.21875 L 96.0625 0 L 79.25 0 L 79.25 -28.53125 C 79.25 -31.65625 78.429688 -34.113281 76.796875 -35.90625 C 75.171875 -37.695312 72.957031 -38.59375 70.15625 -38.59375 C 67.03125 -38.53125 64.539062 -37.34375 62.6875 -35.03125 C 60.832031 -32.71875 59.90625 -29.738281 59.90625 -26.09375 L 59.90625 0 L 43 0 L 43 -28.53125 C 43 -31.65625 42.195312 -34.113281 40.59375 -35.90625 C 39 -37.695312 36.800781 -38.59375 34 -38.59375 C 30.8125 -38.53125 28.269531 -37.328125 26.375 -34.984375 C 24.488281 -32.640625 23.546875 -29.675781 23.546875 -26.09375 L 23.546875 0 L 6.75 0 L 6.75 -52.671875 L 23.546875 -52.671875 L 23.546875 -43.96875 C 27.128906 -50.15625 32.925781 -53.316406 40.9375 -53.453125 C 45.175781 -53.453125 48.84375 -52.390625 51.9375 -50.265625 C 55.03125 -48.148438 57.226562 -45.238281 58.53125 -41.53125 C 61.988281 -49.34375 68.175781 -53.316406 77.09375 -53.453125 Z M 77.09375 -53.453125 "/></g></g></g><g fill="#ffffff" fill-opacity="1"><g transform="translate(2041.030968, 1387.227054)"><g><path d="M 29.796875 -53.25 C 38.921875 -53.25 45.78125 -50.445312 50.375 -44.84375 C 54.96875 -39.25 56.972656 -31.566406 56.390625 -21.796875 L 19.34375 -21.796875 C 20.195312 -18.660156 21.695312 -16.242188 23.84375 -14.546875 C 25.988281 -12.859375 28.628906 -12.015625 31.765625 -12.015625 C 36.578125 -12.015625 40.773438 -13.804688 44.359375 -17.390625 L 53.25 -8.703125 C 47.582031 -2.503906 39.929688 0.59375 30.296875 0.59375 C 21.753906 0.59375 14.957031 -1.847656 9.90625 -6.734375 C 4.863281 -11.628906 2.34375 -18.113281 2.34375 -26.1875 C 2.34375 -34.332031 4.863281 -40.878906 9.90625 -45.828125 C 14.957031 -50.773438 21.585938 -53.25 29.796875 -53.25 Z M 19.0625 -30.875 L 40.15625 -30.875 C 40.15625 -34.070312 39.226562 -36.644531 37.375 -38.59375 C 35.519531 -40.550781 33.0625 -41.53125 30 -41.53125 C 27.132812 -41.53125 24.722656 -40.566406 22.765625 -38.640625 C 20.816406 -36.722656 19.582031 -34.132812 19.0625 -30.875 Z M 19.0625 -30.875 "/></g></g></g><g fill="#ffffff" fill-opacity="1"><g transform="translate(2099.808568, 1387.227054)"><g/></g></g><g clip-path="url(#d210f6c4a3)"><path fill="#40bbff" d="M 2872.308594 1312.449219 L 2583.65625 1472.125 L 2583.65625 1425.855469 L 2828.761719 1294.332031 L 2828.761719 1293 L 2583.65625 1161.484375 L 2583.65625 1115.160156 L 2872.308594 1274.875 Z M 2872.308594 1312.449219 " fill-opacity="1" fill-rule="nonzero"/></g><g clip-path="url(#644097a60e)"><g clip-path="url(#fcdf32ce85)"><g clip-path="url(#6ad6a03a67)"><path fill="#40bbff" d="M 1534.332031 1077.804688 L 1424.113281 1501.417969 C 1421.9375 1509.773438 1427 1518.324219 1435.417969 1520.511719 C 1443.832031 1522.703125 1452.417969 1517.703125 1454.59375 1509.347656 L 1564.8125 1085.734375 C 1566.988281 1077.378906 1561.925781 1068.832031 1553.507812 1066.640625 C 1545.09375 1064.453125 1536.507812 1069.449219 1534.332031 1077.804688 Z M 1534.332031 1077.804688 " fill-opacity="1" fill-rule="nonzero"/></g></g></g><g clip-path="url(#28684b47b4)"><path fill="#e44d26" d="M 1582.472656 1592.957031 L 1569.566406 1448.199219 L 1711.378906 1448.199219 L 1698.464844 1592.9375 L 1640.382812 1609.03125 Z M 1582.472656 1592.957031 " fill-opacity="1" fill-rule="nonzero"/></g><path fill="#f16529" d="M 1687.402344 1583.71875 L 1698.441406 1460.035156 L 1640.472656 1460.035156 L 1640.472656 1596.730469 Z M 1687.402344 1583.71875 " fill-opacity="1" fill-rule="nonzero"/><path fill="#ebebeb" d="M 1640.414062 1477.789062 L 1595.953125 1477.789062 L 1600.742188 1531.476562 L 1640.472656 1531.476562 L 1640.472656 1513.726562 L 1616.980469 1513.726562 L 1615.359375 1495.546875 L 1640.472656 1495.546875 L 1640.472656 1477.789062 Z M 1640.472656 1559.773438 L 1640.398438 1559.792969 L 1620.625 1554.457031 L 1619.371094 1540.296875 L 1601.539062 1540.296875 L 1604.023438 1568.171875 L 1640.394531 1578.226562 L 1640.472656 1578.199219 Z M 1640.472656 1559.773438 " fill-opacity="1" fill-rule="nonzero"/><path fill="#ffffff" d="M 1640.414062 1531.476562 L 1662.277344 1531.476562 L 1660.265625 1554.496094 L 1640.464844 1559.839844 L 1640.464844 1578.308594 L 1676.863281 1568.222656 L 1681.738281 1513.714844 L 1640.472656 1513.714844 Z M 1684.460938 1482.554688 L 1684.882812 1477.789062 L 1640.402344 1477.789062 L 1640.402344 1495.539062 L 1683.285156 1495.539062 L 1683.636719 1491.550781 Z M 1684.460938 1482.554688 " fill-opacity="1" fill-rule="nonzero"/><g clip-path="url(#0e8523dcad)"><path fill="#0277bd" d="M 1914.527344 1447.621094 L 1769.839844 1447.621094 L 1782.605469 1592.550781 L 1842.183594 1609.601562 L 1901.761719 1592.550781 Z M 1914.527344 1447.621094 " fill-opacity="1" fill-rule="nonzero"/></g><path fill="#039be5" d="M 1842.183594 1460.410156 L 1842.183594 1596.386719 L 1889.847656 1582.746094 L 1900.484375 1460.410156 Z M 1842.183594 1460.410156 " fill-opacity="1" fill-rule="nonzero"/><path fill="#ffffff" d="M 1880.910156 1481.722656 L 1842.183594 1481.722656 L 1842.183594 1498.773438 L 1863.035156 1498.773438 L 1861.757812 1515.824219 L 1842.183594 1515.824219 L 1842.183594 1532.875 L 1860.910156 1532.875 L 1859.632812 1552.054688 L 1842.183594 1558.023438 L 1842.183594 1575.925781 L 1875.804688 1564.84375 L 1878.78125 1515.824219 Z M 1880.910156 1481.722656 " fill-opacity="1" fill-rule="nonzero"/><path fill="#eeeeee" d="M 1842.183594 1481.722656 L 1842.183594 1498.773438 L 1804.308594 1498.773438 L 1803.03125 1481.722656 Z M 1822.609375 1515.824219 L 1823.457031 1532.875 L 1842.183594 1532.875 L 1842.183594 1515.824219 Z M 1824.308594 1541.398438 L 1807.289062 1541.398438 L 1808.5625 1564.84375 L 1842.183594 1575.925781 L 1842.183594 1558.023438 L 1824.734375 1552.054688 Z M 1824.308594 1541.398438 " fill-opacity="1" fill-rule="nonzero"/><g clip-path="url(#4f4c6a83ef)"><path fill="#ffc44d" d="M 1969.746094 1447.246094 C 1968.125 1447.246094 1966.582031 1447.941406 1965.511719 1449.15625 C 1964.4375 1450.371094 1963.9375 1451.988281 1964.140625 1453.597656 L 1979.207031 1574.140625 C 1979.441406 1576.015625 1980.597656 1577.648438 1982.289062 1578.492188 L 2042.558594 1608.628906 C 2044.148438 1609.425781 2046.023438 1609.425781 2047.613281 1608.628906 L 2107.886719 1578.492188 C 2109.574219 1577.648438 2110.730469 1576.015625 2110.964844 1574.140625 L 2126.03125 1453.597656 C 2126.234375 1451.988281 2125.734375 1450.371094 2124.664062 1449.15625 C 2123.589844 1447.941406 2122.046875 1447.246094 2120.425781 1447.246094 Z M 1969.746094 1447.246094 " fill-opacity="1" fill-rule="nonzero"/></g><g clip-path="url(#a8521906b4)"><path fill="#e5b045" d="M 2045.085938 1447.246094 L 2045.085938 1609.226562 C 2044.222656 1609.226562 2043.355469 1609.027344 2042.558594 1608.628906 L 1982.289062 1578.492188 C 1980.597656 1577.648438 1979.441406 1576.015625 1979.207031 1574.140625 L 1964.140625 1453.597656 C 1963.9375 1451.988281 1964.4375 1450.371094 1965.511719 1449.15625 C 1966.582031 1447.941406 1968.125 1447.246094 1969.746094 1447.246094 Z M 2045.085938 1447.246094 " fill-opacity="1" fill-rule="evenodd"/></g><path fill="#cfd8dc" d="M 2033.785156 1469.847656 C 2036.90625 1469.847656 2039.4375 1472.378906 2039.4375 1475.496094 L 2039.4375 1573.4375 C 2039.4375 1575.453125 2038.363281 1577.316406 2036.621094 1578.328125 C 2034.878906 1579.335938 2032.730469 1579.34375 2030.984375 1578.34375 L 2004.613281 1563.277344 C 2001.90625 1561.730469 2000.964844 1558.277344 2002.511719 1555.566406 C 2004.058594 1552.859375 2007.511719 1551.917969 2010.222656 1553.464844 L 2028.136719 1563.703125 L 2028.136719 1475.496094 C 2028.136719 1472.378906 2030.664062 1469.847656 2033.785156 1469.847656 Z M 2033.785156 1469.847656 " fill-opacity="1" fill-rule="evenodd"/><path fill="#eceff1" d="M 2050.738281 1475.496094 C 2050.738281 1472.378906 2053.269531 1469.847656 2056.390625 1469.847656 L 2094.058594 1469.847656 C 2097.179688 1469.847656 2099.710938 1472.378906 2099.710938 1475.496094 C 2099.710938 1478.617188 2097.179688 1481.148438 2094.058594 1481.148438 L 2062.039062 1481.148438 L 2062.039062 1517.425781 L 2089.066406 1511.417969 C 2090.828125 1511.027344 2092.667969 1511.5 2094.023438 1512.691406 C 2095.378906 1513.882812 2096.082031 1515.648438 2095.917969 1517.445312 L 2092.152344 1558.882812 C 2091.976562 1560.832031 2090.800781 1562.550781 2089.050781 1563.425781 L 2058.914062 1578.492188 C 2056.125 1579.890625 2052.730469 1578.757812 2051.335938 1575.964844 C 2049.9375 1573.175781 2051.070312 1569.78125 2053.863281 1568.386719 L 2081.183594 1554.726562 L 2083.964844 1524.128906 L 2057.613281 1529.984375 C 2055.941406 1530.355469 2054.191406 1529.949219 2052.851562 1528.875 C 2051.515625 1527.804688 2050.738281 1526.183594 2050.738281 1524.46875 Z M 2050.738281 1475.496094 " fill-opacity="1" fill-rule="evenodd"/></svg>